<mxfile host="app.diagrams.net" modified="2024-07-11T02:45:50.074Z" agent="Mozilla/5.0 (Macintosh; Intel Mac OS X 10_15_7) AppleWebKit/537.36 (KHTML, like Gecko) Chrome/119.0.0.0 Safari/537.36" etag="wMbx9t-PS-1tNjvvhuTK" version="24.6.4" type="github">
  <diagram name="ページ1" id="FbYepyq5b2O5hVew06JU">
    <mxGraphModel dx="859" dy="646" grid="1" gridSize="10" guides="1" tooltips="1" connect="1" arrows="1" fold="1" page="1" pageScale="1" pageWidth="1169" pageHeight="827" math="0" shadow="0">
      <root>
        <mxCell id="0" />
        <mxCell id="1" parent="0" />
        <mxCell id="z9ePq5IkVnjo2RaBwPbp-54" value="" style="rounded=1;whiteSpace=wrap;html=1;fillColor=none;" vertex="1" parent="1">
          <mxGeometry x="397.9" y="70" width="172.1" height="570" as="geometry" />
        </mxCell>
        <mxCell id="z9ePq5IkVnjo2RaBwPbp-1" value="" style="image;aspect=fixed;perimeter=ellipsePerimeter;html=1;align=center;shadow=0;dashed=0;spacingTop=3;image=img/lib/active_directory/web_server.svg;" vertex="1" parent="1">
          <mxGeometry x="249" y="215" width="64" height="80" as="geometry" />
        </mxCell>
        <mxCell id="z9ePq5IkVnjo2RaBwPbp-2" value="" style="image;aspect=fixed;perimeter=ellipsePerimeter;html=1;align=center;shadow=0;dashed=0;spacingTop=3;image=img/lib/active_directory/generic_server.svg;" vertex="1" parent="1">
          <mxGeometry x="453.8" y="127" width="44.8" height="80" as="geometry" />
        </mxCell>
        <mxCell id="z9ePq5IkVnjo2RaBwPbp-3" value="" style="image;aspect=fixed;perimeter=ellipsePerimeter;html=1;align=center;shadow=0;dashed=0;spacingTop=3;image=img/lib/active_directory/database_server.svg;" vertex="1" parent="1">
          <mxGeometry x="640" y="215" width="65.6" height="80" as="geometry" />
        </mxCell>
        <mxCell id="z9ePq5IkVnjo2RaBwPbp-4" value="" style="image;sketch=0;aspect=fixed;html=1;points=[];align=center;fontSize=12;image=img/lib/mscae/VM_Linux.svg;" vertex="1" parent="1">
          <mxGeometry x="211" y="37" width="50" height="46" as="geometry" />
        </mxCell>
        <mxCell id="z9ePq5IkVnjo2RaBwPbp-5" style="shape=image;editableCssRules=.*;image=data:image/svg+xml,PHN2ZyB2aWV3Qm94PSIwIDAgMjQgMjQiIHhtbG5zPSJodHRwOi8vd3d3LnczLm9yZy8yMDAwL3N2ZyI+PHN0eWxlPip7ZmlsbDojMjYyNTc3fTwvc3R5bGU+PHBhdGggZD0iTTEyLjA3Ni4wNjZMOC44ODMgMy4yOEgzLjM0OHY1LjQzNEwwIDEyLjAxbDMuMzQ5IDMuMjk4djUuMzloNS4zNzRsMy4yODUgMy4yMzYgMy4yODUtMy4yMzZoNS40M3YtNS4zNzRMMjQgMTIuMDI2bC0zLjIzMi0zLjI1MlYzLjMyMUgxNS4zMXptMCAuNzQ5bDIuNDkgMi41MDZoLTEuNjl2Ni40NDFsLS44LjgwNS0uODEtLjgxNVYzLjI4SDkuNjI3em0tOC4yIDIuOTkxaDQuNDgzTDYuNDg1IDUuNjkybDQuMjUzIDQuMjc5di42NTRIOS45NEw1LjY3NCA2LjQyM2wtMS43OTggMS43N3ptNS4yMjcgMGgxLjYzNXY1LjQxNWwtMy41MDktMy41M3ptNC4zMDIuMDQzaDEuNjg3bDEuODMgMS44NDItMy41MTcgMy41Mzl6bTIuNDMxIDBoNC40MDR2NC4zOTRsLTEuODMtMS44NDItNC4yNDEgNC4yNjdoLS43NjR2LS42OWw0LjI2MS00LjI4N3ptMi41NzQgMy4zbDEuODMgMS44NDN2MS42NzZoLTUuMzI3em0tMTIuNzM1LjAxM2wzLjUxNSAzLjQ2MkgzLjg3NnYtMS42OXpNMy4zNDggOS40NTR2MS42OTdoNi4zNzdsLjg3MS44NTgtLjc4Mi43N0gzLjM1djEuNzg2TC43NTMgMTIuMDF6bTE3LjQyLjA2OGwyLjQ4OCAyLjUwMy0yLjUzMyAyLjU1di0xLjc5NmgtNi40MWwtLjc1LS43NTQuODI1LS44M2g2LjM4em0tOS41MDIuOTc4bC44MS44MTUuMTg2LS4xODguNjE0LS42MTh2LjY4NmguNzY4bC0uODI1LjgzLjc1Ljc1NGgtLjcxOXYuODA4bC0uODQyLS44My0uNzQxLjczdi0uNzA3aC0uN2wuNzgxLS43Ny0uMTg4LS4xODYtLjY4Mi0uNjcyaC43ODh6bS03LjM5IDIuODA3aDUuNDAybC0zLjYwMyAzLjU1LTEuNzk4LTEuNzcyem02LjE1NCAwaC43MDh2LjdsLTQuNDA0IDQuMzM4IDEuODUyIDEuODI0aC00LjMxdi00LjM0MmwxLjc5OCAxLjc3em0zLjM0OCAwaC43MTVsNC4zMTcgNC4zNDMuMTg2LS4xODcgMS41OTktMS42MXY0LjMxNmgtNC4zNjZsMS44NTMtMS44MjUtLjE4OC0uMTg1LTQuMTE2LTQuMDU0em0xLjQ2IDBoNS4zNTd2MS43OThsLTEuNzg1IDEuNzk2em0tMi44My4xOTFsLjg0Mi44Mjl2Ni4zN2gxLjY5MWwtMi41MzIgMi40OTUtMi41MzMtMi40OTVoMS43OVYxNC4yM3ptLTEuMjcgMS4yNTF2NS40Mkg4LjkzOWwtMS44NTItMS44MjN6bTIuNjQuMDk3bDMuNTUyIDMuNDk5LTEuODUzIDEuODI1aC0xLjd6Ii8+PC9zdmc+;" vertex="1" parent="1">
          <mxGeometry x="281" y="30" width="59" height="60" as="geometry" />
        </mxCell>
        <mxCell id="z9ePq5IkVnjo2RaBwPbp-7" value="" style="dashed=0;outlineConnect=0;html=1;align=center;labelPosition=center;verticalLabelPosition=bottom;verticalAlign=top;shape=mxgraph.weblogos.java" vertex="1" parent="1">
          <mxGeometry x="430.4" y="425" width="34.4" height="65" as="geometry" />
        </mxCell>
        <mxCell id="z9ePq5IkVnjo2RaBwPbp-8" style="shape=image;editableCssRules=.*;image=data:image/svg+xml,PHN2ZyB2aWV3Qm94PSIwIDAgMjQgMjQiIHhtbG5zPSJodHRwOi8vd3d3LnczLm9yZy8yMDAwL3N2ZyI+PHN0eWxlPip7ZmlsbDojNkRCMzNGfTwvc3R5bGU+PHBhdGggZD0ibTIzLjY5MyAxMC43MDU4LTQuNzMtOC4xODQ0Yy0uNDA5NC0uNzEwNi0xLjQxNjYtMS4yOTQyLTIuMjQwMi0xLjI5NDJINy4yNzI1Yy0uODE5IDAtMS44MzA4LjU4MzYtMi4yNDAyIDEuMjk0MkwuMzA3IDEwLjcwNThjLS40MDk1LjcxMDYtLjQwOTUgMS44NzMgMCAyLjU4MzdsNC43MjUyIDguMTg5Yy40MDk0LjcxMDcgMS40MTY2IDEuMjk0MyAyLjI0MDIgMS4yOTQzaDkuNDU1Yy44MTkgMCAxLjgyNi0uNTgzNiAyLjI0MDItMS4yOTQybDQuNzI1Mi04LjE4OWMuNDA5NS0uNzEwNy40MDk1LTEuODczMiAwLTIuNTgzOHpNMTAuOTc2MyA1Ljc1NDdjMC0uNTM2NS40Mzc3LS45NzQyLjk3NDItLjk3NDJzLjk3NDIuNDM3Ny45NzQyLjk3NDJ2NS44MjE3YzAgLjUzNjYtLjQzNzcuOTc0Mi0uOTc0Mi45NzQycy0uOTc0Mi0uNDM3Ni0uOTc0Mi0uOTc0MnptLjk3NDIgMTIuNDI5NGMtMy42NDI3IDAtNi42MDc3LTIuOTY1LTYuNjA3Ny02LjYwNzcuMDA0Ny0yLjA4OTYuOTkzLTQuMDUyMSAyLjY2ODUtNS4zMDRhLjg2NTcuODY1NyAwIDAgMSAxLjIxNDIuMTc4OC44NjU3Ljg2NTcgMCAwIDEtLjE3ODggMS4yMTQzYy0yLjE2MDIgMS42MDQ4LTIuNjEyIDQuNjU5Mi0xLjAwNzIgNi44MTk0IDEuNjA0OSAyLjE2MDMgNC42NTkzIDIuNjEyIDYuODE5NSAxLjAwNzIgMS4yMzc4LS45MTc3IDEuOTY3My0yLjM3MiAxLjk2NzMtMy45MTU3YTQuODk3MiA0Ljg5NzIgMCAwIDAtMS45ODYxLTMuOTI1Yy0uMzg2LS4yODI0LS40NjYtLjgyODQtLjE4MzYtMS4yMTQzLjI4MjQtLjM4Ni44MjgzLS40NjYgMS4yMTQzLS4xODM1IDEuNjg5NSAxLjI0NzEgMi42ODI2IDMuMjIzOCAyLjY4NzMgNS4zMjI4IDAgMy42NDc0LTIuOTY1IDYuNjA3Ny02LjYwNzcgNi42MDc3eiIvPjwvc3ZnPg==;" vertex="1" parent="1">
          <mxGeometry x="475.90000000000003" y="490" width="46.2" height="50" as="geometry" />
        </mxCell>
        <mxCell id="z9ePq5IkVnjo2RaBwPbp-9" style="shape=image;editableCssRules=.*;image=data:image/svg+xml,PHN2ZyB2aWV3Qm94PSIwIDAgMjQgMjQiIHhtbG5zPSJodHRwOi8vd3d3LnczLm9yZy8yMDAwL3N2ZyI+PHN0eWxlPip7ZmlsbDojNkRCMzNGfTwvc3R5bGU+PHBhdGggZD0iTTIxLjg1MzcgMS40MTU4YTEwLjQ1MDQgMTAuNDUwNCAwIDAgMS0xLjI4NCAyLjI0NzFBMTEuOTY2NiAxMS45NjY2IDAgMSAwIDMuODUxOCAyMC43NzU3bC40NDQ1LjM5NTFhMTEuOTU0MyAxMS45NTQzIDAgMCAwIDE5LjYzMTYtOC4yOTcxYy4zNDU3LTMuMDEyNi0uNTY4LTYuODY0OS0yLjA3NDMtMTEuNDU4ek01LjU4MDUgMjAuODc0NWExLjAxNzQgMS4wMTc0IDAgMSAxLS4xNDgyLTEuNDMyMyAxLjAzOTYgMS4wMzk2IDAgMCAxIC4xNDgyIDEuNDMyM3ptMTYuMTk5MS0zLjU4MDZjLTIuOTM4NSAzLjkyNjMtOS4yNjAxIDIuNTkyOC0xMy4yODUyIDIuNzkwNCAwIDAtLjcxNjEuMDQ5NC0xLjQzMjMuMTQ4MSAwIDAgLjI3MTctLjEyMzQuNjE3NC0uMjQ2OSAyLjgzOTgtLjk4NzcgNC4xNzMyLTEuMTg1MyA1LjkwMTgtMi4wNzQzIDMuMjM0OS0xLjY1NDUgNi40Njk4LTUuMjg0NCA3LjExMTgtOS4wMzc5LTEuMjM0NyAzLjYwNTMtNC45ODgxIDYuNzE2Ny04LjM5NTkgNy45NzYxLTIuMzQ1OS44NjQzLTYuNTY4NSAxLjcwMzktNi41Njg1IDEuNzAzOWwtLjE3MjktLjA5ODhjLTIuODY0NS0xLjQwNzYtMi45NjMyLTcuNjMwNCAyLjI3MTgtOS42MzA2IDIuMjk2Ni0uODg5IDQuNDY5Ni0uMzk1IDYuOTYzNy0uOTg3NyAyLjY0MjItLjYxNzQgNS43MDQzLTIuNTkyOSA2LjkzOS01LjE4NTcgMS4zODI4IDQuMTczMiAzLjA2MiAxMC42NDMuMDQ5MyAxNC42NDM0eiIvPjwvc3ZnPg==;" vertex="1" parent="1">
          <mxGeometry x="425.9" y="490" width="50" height="50" as="geometry" />
        </mxCell>
        <mxCell id="z9ePq5IkVnjo2RaBwPbp-57" style="edgeStyle=orthogonalEdgeStyle;rounded=0;orthogonalLoop=1;jettySize=auto;html=1;exitX=1;exitY=0.5;exitDx=0;exitDy=0;exitPerimeter=0;" edge="1" parent="1" source="z9ePq5IkVnjo2RaBwPbp-10" target="z9ePq5IkVnjo2RaBwPbp-53">
          <mxGeometry relative="1" as="geometry" />
        </mxCell>
        <mxCell id="z9ePq5IkVnjo2RaBwPbp-10" value="" style="fontColor=#0066CC;verticalAlign=top;verticalLabelPosition=bottom;labelPosition=center;align=center;html=1;outlineConnect=0;fillColor=#CCCCCC;strokeColor=#6881B3;gradientColor=none;gradientDirection=north;strokeWidth=2;shape=mxgraph.networks.pc;" vertex="1" parent="1">
          <mxGeometry x="40" y="240" width="100" height="70" as="geometry" />
        </mxCell>
        <mxCell id="z9ePq5IkVnjo2RaBwPbp-11" style="shape=image;editableCssRules=.*;image=data:image/svg+xml,PHN2ZyB2aWV3Qm94PSIwIDAgMjQgMjQiIHhtbG5zPSJodHRwOi8vd3d3LnczLm9yZy8yMDAwL3N2ZyI+PHN0eWxlPip7ZmlsbDojRDIyMTI4fTwvc3R5bGU+PHBhdGggZD0iTTE3LjgwNSAyLjE5N3YuMDY2aC4xNTZ2LjQ0aC4wNzJ2LS40NGguMTU2di0uMDY2em0uOSAwbC0uMTc1LjM1My0uMTcyLS4zNTNoLS4wODd2LjUwNmguMDY3VjIuM2wuMTcyLjM1aC4wNDVsLjE3Mi0uMzV2LjQwNGguMDY2di0uNTA2em0tNC4yNTcgMWMtLjIwNC4zMS0uNDI0LjY2LS42NiAxLjA2bC0uMDQuMDYyYTQ0LjQ1NyA0NC40NTcgMCAwMC0xLjI2NSAyLjI5Yy0uMTg3LjM2LS4zOC43NDItLjU3NyAxLjE0NmwyLjI2Ny0uMjVjLjY2LS4zMDIuOTU1LS41NzggMS4yNDItLjk3NmExNS41IDE1LjUgMCAwMC4yMy0uMzQyYy4yMy0uMzYzLjQ2LS43NjMuNjYzLTEuMTYuMTk3LS4zODYuMzctLjc2Ny41MDUtMS4xMS4wODMtLjIyLjE1LS40MjIuMTk4LS42LjA0Mi0uMTU4LjA3NC0uMzA3LjEtLjQ1LS44ODQuMTUtMS45NjUuMjk1LTIuNjY4LjMzek0xMS44OTQgNy43OGwtLjA3Ny4xNmMtLjA3OC4xNi0uMTU3LjMyLS4yMzYuNDg4LS4wODYuMTgtLjE3Mi4zNjQtLjI2LjU1MmwtLjEzMi4yODdhNzUuMjY1IDc1LjI2NSAwIDAwLTEuNDI3IDMuM2MtLjE2My4zOTctLjMyNy44MDctLjQ5MyAxLjIzLS4xNS4zOC0uMjk3Ljc2NS0uNDUgMS4xNjRsLS4wMi4wNmMtLjE1LjM5Ni0uMy44MDItLjQ1MyAxLjIybC0uMDEuMDI3LjcyLS4wOGEuMjEzLjIxMyAwIDAxLS4wNDItLjAwNmMuODYzLS4xMDYgMi4wMS0uNzUgMi43NS0xLjU0Ny4zNDItLjM2Ny42NTItLjguOTQtMS4zMDYuMjEzLS4zNzcuNDEzLS43OTUuNjA0LTEuMjU4LjE2OC0uNDA1LjMyOC0uODQzLjQ4LTEuMzE4LS4xOTYuMTA1LS40MjMuMTgtLjY3My4yMzVhMi4xODQgMi4xODQgMCAwMS0uMjczLjA0NmMuODA2LS4zMSAxLjMxNC0uOTA1IDEuNjgzLTEuNjRhMi44MTYgMi44MTYgMCAwMS0uOTY4LjQyOGMtLjA2LjAxMi0uMTE2LjAyMi0uMTc0LjAzbC0uMDQzLjAwNmguMDAyYy4yNzgtLjExOC41MTQtLjI0OC43MTgtLjQwM2EyLjU3MSAyLjU3MSAwIDAwLjYzNy0uNjk4bC4wNjMtLjEwNC4wNzctLjE1NGE4LjEwNyA4LjEwNyAwIDAwLjM2Ny0uODVsLjAzLS4wODhhMy4wNCAzLjA0IDAgMDAuMTIzLS40NjMuNzMzLjczMyAwIDAxLS4wOTQuMDY1Yy0uMjQzLjE0NS0uNjYuMjc3LS45OTYuMzRsLjY2My0uMDc0LS42NjQuMDczaC0uMDE3bC0uMS4wMTdjLjAwNi0uMDAzLjAxLS4wMDYuMDE3LS4wMDhsLTIuMjY1LjI1LS4wMTMuMDIyek04LjI3IDE2LjQ1Yy0uMTE3LjMyMy0uMjM2LjY1NC0uMzU1Ljk5MmwtLjAwNS4wMTVjLS4wMTYuMDQ2LS4wMzIuMDk0LS4wNS4xNDItLjA4LjIyNy0uMTUuNDMyLS4zMS45LjI2NC4xMi40NzUuNDM1LjY3NS43OTNhMS40NCAxLjQ0IDAgMDAtLjQ2Ni0uOTljMS4yOTMuMDYgMi40MS0uMjcgMi45OS0xLjIxNy4wNS0uMDg0LjA5Ni0uMTczLjE0LS4yNjgtLjI2LjMzMy0uNTkuNDc0LTEuMi40NCAwIDAtLjAwNCAwLS4wMDUuMDAybC4wMDQtLjAwMmMuOS0uNDA0IDEuMzU0LS43OSAxLjc1NC0xLjQzMy4wOTQtLjE1My4xODYtLjMyLjI4LS41MDMtLjc4OC44MS0xLjcwMiAxLjA0LTIuNjY0Ljg2NWwtLjcyLjA3OGE2LjQzIDYuNDMgMCAwMC0uMDY3LjE4M3pNMTUuNDIuMTEyYy0uMzc2LjIyMi0xIC44NS0xLjc0OCAxLjc2M2wuNjg2IDEuMjk0Yy40OC0uNjg3Ljk3LTEuMzA3IDEuNDYyLTEuODM2bC4wNTgtLjA2MmMtLjAyLjAyLS4wNC4wNC0uMDU3LjA2Mi0uMTYuMTc2LS42NDQuNzQtMS4zNzUgMS44NjMuNzAzLS4wMzUgMS43ODQtLjE4IDIuNjY2LS4zMy4yNjItMS40Ny0uMjU4LTIuMTQyLS4yNTgtMi4xNDJzLS42Ni0xLjA3LTEuNDM2LS42MXptLTMuMDg0IDYuNDAyYTQwLjI1MyA0MC4yNTMgMCAwMTEuMzA2LTIuMjZsLjA0LS4wNjRjLjIyNC0uMzUyLjQ1LS42OTMuNjc3LTEuMDJsLS42ODUtMS4yOTMtLjE1Ny4xOTJjLS4xOTcuMjQ1LS40MDMuNTEtLjYxMy43OWEzOS44NTMgMzkuODUzIDAgMDAtMi4wMTYgMi45N2wtLjAyMi4wMzguODkzIDEuNzYzYy4xOS0uMzc4LjM4LS43NTIuNTc1LTEuMTE4em0tMy43MyA4LjMyYy4xNTgtLjQwNi4zMTktLjgxLjQ4My0xLjIyNS4xNTYtLjM5NC4zMi0uNzkuNDg0LTEuMTlhOTEuMTMzIDkxLjEzMyAwIDAxMS42LTMuNjA0bC4yMDUtLjQyNGMuMTItLjI0My4yMzctLjQ4NS4zNi0uNzI0YS4xMjUuMTI1IDAgMDEuMDItLjA0bC0uODk1LTEuNzYzLS4wNDQuMDdjLS4yMDcuMzQtLjQxNC42ODctLjYxNyAxLjA0MmEzOC4wNTYgMzguMDU2IDAgMDAtMS4wOTIgMi4wNGwtLjA5NC4xOTNhMjQuNTczIDI0LjU3MyAwIDAwLTEuMjU4IDMuMDg3IDE4LjQ5MiAxOC40OTIgMCAwMC0uNTIgMS45OTdsLjg5NiAxLjc3Yy4xMTctLjMxNy4yNC0uNjM4LjM2NC0uOTYzem0tMS4zNzYtLjQ3NmExMy4zOCAxMy4zOCAwIDAwLS4yMzQgMS42OTJjMCAuMDItLjAwNC4wNC0uMDA1LjA2LS4yOC0uNDUtMS4wMy0uODg4LTEuMDI2LS44ODQuNTM3Ljc3OC45NDQgMS41NSAxLjAwNSAyLjMxLS4yOS4wNTgtLjY4NC0uMDI3LTEuMTQtLjE5NS40NzUuNDM2LjgzLjU1Ni45Ny41ODgtLjQzNC4wMy0uODkuMzI4LTEuMzQ2LjY3LjY2OC0uMjcgMS4yMS0uMzggMS41OTYtLjI5LS42MSAxLjc0LTEuMjMgMy42NTUtMS44NDMgNS42OWEuNTM4LjUzOCAwIDAwLjM2NC0uMzU0Yy4xMS0uMzY4Ljg0LTIuNzg2IDEuOTc4LTUuOTY1bC4wOTctLjI3LjAyOC0uMDc4Yy4xMi0uMzMyLjI0Ni0uNjcyLjM3NC0xLjAybC4wOS0uMjM3di0uMDA0TDcuMjQgMTQuM2MtLjAwMy4wMi0uMDEuMDQtLjAxMi4wNnoiLz48L3N2Zz4=;" vertex="1" parent="1">
          <mxGeometry x="235.5" y="363" width="59" height="50" as="geometry" />
        </mxCell>
        <mxCell id="z9ePq5IkVnjo2RaBwPbp-12" style="shape=image;editableCssRules=.*;image=data:image/svg+xml,PHN2ZyB2aWV3Qm94PSIwIDAgMjQgMjQiIHhtbG5zPSJodHRwOi8vd3d3LnczLm9yZy8yMDAwL3N2ZyI+PHN0eWxlPip7ZmlsbDojMDA5NjM5fTwvc3R5bGU+PHBhdGggZD0iTTEyIDBMMS42MDUgNnYxMkwxMiAyNGwxMC4zOTUtNlY2TDEyIDB6bTYgMTYuNTljMCAuNzA1LS42NDYgMS4yOS0xLjUyOSAxLjI5LS42MzEgMC0xLjM1MS0uMjU1LTEuODAxLS44MWwtNi03LjE0MXY2LjY2YzAgLjcyMS0uNTcgMS4yOS0xLjI3NCAxLjI5SDcuMzJjLS43MjEgMC0xLjI5LS42LTEuMjktMS4yOVY3LjQxYzAtLjcwNS42My0xLjI5IDEuNS0xLjI5LjY0NiAwIDEuMzguMjU1IDEuODMuODFsNS45NyA3LjE0MVY3LjQxYzAtLjcyMS42LTEuMjkgMS4yOS0xLjI5aC4wNzVjLjcyIDAgMS4yOS42IDEuMjkgMS4yOXY5LjE4SDE4eiIvPjwvc3ZnPg==;" vertex="1" parent="1">
          <mxGeometry x="288" y="360" width="55" height="50" as="geometry" />
        </mxCell>
        <mxCell id="z9ePq5IkVnjo2RaBwPbp-13" style="shape=image;editableCssRules=.*;image=data:image/svg+xml,PHN2ZyB2aWV3Qm94PSIwIDAgMjQgMjQiIHhtbG5zPSJodHRwOi8vd3d3LnczLm9yZy8yMDAwL3N2ZyI+PHN0eWxlPip7ZmlsbDojRjhEQzc1fTwvc3R5bGU+PHBhdGggZD0iTTEyLjY2IDMuNDk0Yy0uMzc3LjYzNy0uNTQ0IDIuMTE0LS41MDIgMy4xNjJsLS4wMDUuMDA0Yy4wMzYuOTQ2LjE2NSAxLjgxNi4zNzIgMi42MTUtMy4wOTYuNzY3LTYuNDY2IDIuNzk1LTguMzUyIDQuNzU0LS44ODItMS4xOS0xLjIzMi0yLjE2OC0xLjMzNi0yLjkwOC0uMTMxLS45MzYuMDkyLTEuNzk0LjY0Ni0yLjQ4Mi44NjctMS4wNzcgMi4wOTgtMS4xNTMgMy4zNjUtLjk0LS4wMjUuMi4wMDEuMzkxLjA4MS41MS4zMzUuNDk0IDIuMTM1LjY2OCAzLjIxLjE4OS0uNzkzLTEuMTEyLTIuNC0xLjY1NC0yLjg0NC0xLjQzN2EuNzYyLjc2MiAwIDAwLS4zMzUuMzU5Yy0uNDM4LS4wNzgtLjg3My0uMTM3LTEuMTktLjEzNC0xLjExNy4wMDgtMS45NzEuMzk4LTIuNjEgMS4xOTMtLjYyOC43OC0uODgyIDEuNzQ3LS43MzQgMi44LjE0Ljk5Ni42MzMgMi4wNTUgMS40NiAzLjE1NC0uMTM4LjE0Ny0uMjcuMjkzLS4zOTguNDM2QzEuNDczIDE3LjAyMyAwIDE5LjQ0IDAgMTkuODQydi4yMDdoMi42NThsLS4wNDYtLjI0NmMtLjE1LS43OTMuMTUtMS43ODUuNzYzLTIuNTI2LjM4Ni0uNDY1IDEuMDI0LS45OTYgMi4wMjctMS4yNDEuODkxLjg3IDIuMDI3IDEuNzk0IDMuMjkxIDIuNjg1aDEuOTc2di0uMjA4YS42NzguNjc4IDAgMDAtLjMyNy0uNTc3Yy0uMzEyLS4yMDQtLjc5NC0uMjMyLTEuMjM3LS4wODEtLjQyMS0uNDctLjY1OC0xLjA5OC0uNzA5LTEuODc3IDQuMjg3LjM4IDguMzg4IDIuMTEgMTMuMDE1IDQuNTI4aDIuNTQ2bC4wMzMtLjE2N2MuMDQ4LS4yMzctLjA4Mi0uNTU2LS4zNDYtLjg1MS0uNDU2LS41MS0xLjM0OS0uNzUyLTIuMDk1LS43MzQtLjUxNC0uNjEyLTMuMzQyLTMuNTkxLTMuNTA3LTMuNzY1YTkuNjI2IDkuNjI2IDAgMDAyLjY3My0yLjg0N2gxLjM4OHYtLjI5OEgyMC44OWE5LjgxIDkuODEgMCAwMC4yMjMtLjQxOWguOTg5di0uMjk5aC0uODQ1Yy42MjgtMS4zNTkuOTc1LTIuOTE4Ljk0Mi00LjYyNWwuMDAzLjAwMmMtLjAwMi0uNDY4LS4xNDctMi40NDUtLjQxNS0yLjk4OS0uNzI2LjI3Ni0yLjA0NyAxLjE3LTIuMzQ2IDIuMDg0YTE0LjU1NyAxNC41NTcgMCAwMC00LjQ2My4wNTZjLS4yMzctLjk4NC0xLjQyMy0xLjczNi0yLjMxOC0yLjE2em0uMTY0LjU3N2MuMjExIDEuMTQ4LjU5MyAxLjg2OSAxLjQyIDIuMjIzLjczNC0uMjEgMS41OC0uMzQgMi40NDgtLjM4OGwuNzE3IDEuNTcxLjQ2LTEuNTg1Yy44NzYuMDI5IDEuNzM2LjE0MiAyLjQ4NS4zNDkuNzYyLS41NTQgMS4wNTctMS40IDEuMjE4LTIuMTM4LjIwMi44Ni4xNzggMi43MTcuMTggMi43MTdhOS44ODMgOS44ODMgMCAwMS0uMTU4IDEuOTg4bC0uODI0LjM1LjcyNi4xMWE5LjE5IDkuMTkgMCAwMS0uMTk4LjcxNGwtLjcwMy4yMDUuNTYuMjAxYy0uMDk0LjI1My0uMi41LS4zMTQuNzM4aC0xLjE2di4yOTloMS4wMDhhOC43ODggOC43ODggMCAwMS0uMjM4LjQxOWgtLjc3di4yOThoLjU4M2E4LjYzNCA4LjYzNCAwIDAxLTIuOTIxIDIuNzQ4Yy0xLjMzNC0uNjY0LTIuMzQxLTEuNjM0LTMuMDc5LTIuNzQ4aC40NDZ2LS4yOThoLS42MzZhOS4xOTUgOS4xOTUgMCAwMS0uMjM2LS40MTloLjg3MnYtLjI5OWgtMS4wMjZhMTAuMTIgMTAuMTIgMCAwMS0uNDYtMS4wOTRsLjUyMi0uMTQ3LS42NTktLjI2M2MtLjA2Ni0uMjE1LS4xMjctLjQzLS4xOC0uNjQ2bDEuMDE1LS4wNjktMS4xNi0uNjE1Yy0uMjgyLTEuNTYzLS4yMjUtMy4wOC4wNjItNC4yMjF6bTIuOTQ2IDIuOTdjLS44OSAwLTEuMjQuOTA5LTEuMjU1Ljk0OGwuMjUyLjA5NGMuMDEyLS4wMzMuMzAyLS43NzMgMS4wMDMtLjc3My4xNTQgMCAuMjYyLjA2Mi4zNC4xOTUuMTgyLjMxNC4xNTIuOTMzIDAgMS41OGgtMS4yMjd2LjI2OWgxLjE1OWE1LjY3OSA1LjY3OSAwIDAxLS40OTYgMS4yMjVsLS4wNjQuMTEyIDEuNTM3Ljk2Ny0uODY1LjU3LjE0OC4yMjQuOTY3LS42MzcgMS4wNDMuNjgxLjE0My0uMjI4LS45NjctLjU5OCAxLjUxOC0uOTg2di0uMDAxYy0uMzE4LS40Ny0uNDItLjg3Mi0uMjg2LTEuMzI5aC4xMDhsMS4xNjctLjAwMS4wMDItLjI2OGgtMS4xNzVjLjIxNi0uNTEuNTItLjk2OCAxLjYwMi0uOTY4di0uMjdjLS45OTkgMC0xLjU5Ni4zOTctMS44ODMgMS4yMzhoLTIuMTU0Yy4xNS0uNjcyLjE3Ny0xLjMzMy0uMDQ2LTEuNzE1YS42My42MyAwIDAwLS41Ny0uMzN6bS41NSAyLjMxM2gyLjEyNmMtLjA5NS4zMDQtLjA1Ny43NjMuMTc4IDEuMTU3aC0yLjczN2MuMTY2LS4zMzQuMzItLjc0LjQzMy0xLjE1N3ptLTMuNjgzLjMyMWMuMTU1LjUxNS4zNDQuOTk3LjU2MiAxLjQ1MWgtLjkxdi4yOTloMS4wNmMuMDc1LjE0Mi4xNTMuMjgyLjIzMy40MTlIMTIuMjl2LjI5OGgxLjQ3OGMuOTEgMS40MTYgMi4xNCAyLjQ5OSAzLjUzNCAzLjMxOGE5LjQ1IDkuNDUgMCAwMC40NTYtLjI4bC4zNjIuMzktLjYxLjkzOCAxLjA0LS40NzQuNjA2LjY1Mi0xLjAxOS43NzYgMS40MDMtLjM2MyAxLjkwNSAyLjA1LjE2LS4wMTRjMS4wMDctLjA4NiAxLjU4LjQ2IDEuNzMuNjMuMTEyLjEyNC4xNzkuMjM3LjIxNS4zMjZoLTIuMDM2Yy00LjY3LTIuNDM3LTguNzcxLTQuMTU1LTEzLjEyNy00LjUzLjAxLS42MDcuMTE3LTEuMjkzLjMyNC0yLjA1OGwtLjQtLjEwOGMtLjIxMy43ODYtLjMyNSAxLjQ5Ny0uMzM4IDIuMTM0LS40NTQtLjAzLS45MS0uMDQ2LTEuMzcxLS4wNDYtLjM5MSAwLS43NDcuMDM2LTEuMDcyLjFhMTQuNzcxIDE0Ljc3MSAwIDAxLTEuMDktMS4yMWMuNTQ2LS41NyAxLjE5LTEuMTIzIDEuODkzLTEuNjQzbC45NjcuNjY4LS4zMTYtMS4xMjhjLjI5Ny0uMi42MDMtLjM5NC45MTQtLjU4bDEuNDM0LjczLS42NzMtMS4xNjJjLjE5OC0uMTA2LjM5OC0uMjEuNTk4LS4zMWwyLjAwNyAxLjM0Ni0uNjYtMS45NTJhMTUuMzIgMTUuMzIgMCAwMTIuMDM0LS42Njd6bTMuNDkyIDEuMTA1aDIuMjJsLTEuMDg0LjcxNXpNNC4xNTMgMTQuNjc1Yy4yNzMuMzM3LjU3Ny42NzguOTEgMS4wMjFhNC4xMDQgNC4xMDQgMCAwMC0yLjAwNyAxLjMxNmMtLjYyOS43Ni0uOTYyIDEuNzYyLS44ODYgMi42MjJILjQ5NWMuMzM3LS43MjggMS42NzctMi44MzMgMy42NTgtNC45NTl6Ii8+PC9zdmc+;" vertex="1" parent="1">
          <mxGeometry x="473.50000000000006" y="432.5" width="51" height="50" as="geometry" />
        </mxCell>
        <mxCell id="z9ePq5IkVnjo2RaBwPbp-14" style="shape=image;editableCssRules=.*;image=data:image/svg+xml,PHN2ZyB2aWV3Qm94PSIwIDAgMjQgMjQiIHhtbG5zPSJodHRwOi8vd3d3LnczLm9yZy8yMDAwL3N2ZyI+PHN0eWxlPip7ZmlsbDojMjQ5NkVEfTwvc3R5bGU+PHBhdGggZD0iTTEzLjk4MyAxMS4wNzhoMi4xMTlhLjE4Ni4xODYgMCAwMC4xODYtLjE4NVY5LjAwNmEuMTg2LjE4NiAwIDAwLS4xODYtLjE4NmgtMi4xMTlhLjE4NS4xODUgMCAwMC0uMTg1LjE4NXYxLjg4OGMwIC4xMDIuMDgzLjE4NS4xODUuMTg1bS0yLjk1NC01LjQzaDIuMTE4YS4xODYuMTg2IDAgMDAuMTg2LS4xODZWMy41NzRhLjE4Ni4xODYgMCAwMC0uMTg2LS4xODVoLTIuMTE4YS4xODUuMTg1IDAgMDAtLjE4NS4xODV2MS44ODhjMCAuMTAyLjA4Mi4xODUuMTg1LjE4NW0wIDIuNzE2aDIuMTE4YS4xODcuMTg3IDAgMDAuMTg2LS4xODZWNi4yOWEuMTg2LjE4NiAwIDAwLS4xODYtLjE4NWgtMi4xMThhLjE4NS4xODUgMCAwMC0uMTg1LjE4NXYxLjg4N2MwIC4xMDIuMDgyLjE4NS4xODUuMTg2bS0yLjkzIDBoMi4xMmEuMTg2LjE4NiAwIDAwLjE4NC0uMTg2VjYuMjlhLjE4NS4xODUgMCAwMC0uMTg1LS4xODVIOC4xYS4xODUuMTg1IDAgMDAtLjE4NS4xODV2MS44ODdjMCAuMTAyLjA4My4xODUuMTg1LjE4Nm0tMi45NjQgMGgyLjExOWEuMTg2LjE4NiAwIDAwLjE4NS0uMTg2VjYuMjlhLjE4NS4xODUgMCAwMC0uMTg1LS4xODVINS4xMzZhLjE4Ni4xODYgMCAwMC0uMTg2LjE4NXYxLjg4N2MwIC4xMDIuMDg0LjE4NS4xODYuMTg2bTUuODkzIDIuNzE1aDIuMTE4YS4xODYuMTg2IDAgMDAuMTg2LS4xODVWOS4wMDZhLjE4Ni4xODYgMCAwMC0uMTg2LS4xODZoLTIuMTE4YS4xODUuMTg1IDAgMDAtLjE4NS4xODV2MS44ODhjMCAuMTAyLjA4Mi4xODUuMTg1LjE4NW0tMi45MyAwaDIuMTJhLjE4NS4xODUgMCAwMC4xODQtLjE4NVY5LjAwNmEuMTg1LjE4NSAwIDAwLS4xODQtLjE4NmgtMi4xMmEuMTg1LjE4NSAwIDAwLS4xODQuMTg1djEuODg4YzAgLjEwMi4wODMuMTg1LjE4NS4xODVtLTIuOTY0IDBoMi4xMTlhLjE4NS4xODUgMCAwMC4xODUtLjE4NVY5LjAwNmEuMTg1LjE4NSAwIDAwLS4xODQtLjE4NmgtMi4xMmEuMTg2LjE4NiAwIDAwLS4xODYuMTg2djEuODg3YzAgLjEwMi4wODQuMTg1LjE4Ni4xODVtLTIuOTIgMGgyLjEyYS4xODUuMTg1IDAgMDAuMTg0LS4xODVWOS4wMDZhLjE4NS4xODUgMCAwMC0uMTg0LS4xODZoLTIuMTJhLjE4NS4xODUgMCAwMC0uMTg0LjE4NXYxLjg4OGMwIC4xMDIuMDgyLjE4NS4xODUuMTg1TTIzLjc2MyA5Ljg5Yy0uMDY1LS4wNTEtLjY3Mi0uNTEtMS45NTQtLjUxLS4zMzguMDAxLS42NzYuMDMtMS4wMS4wODctLjI0OC0xLjctMS42NTMtMi41My0xLjcxNi0yLjU2NmwtLjM0NC0uMTk5LS4yMjYuMzI3Yy0uMjg0LjQzOC0uNDkuOTIyLS42MTIgMS40My0uMjMuOTctLjA5IDEuODgyLjQwMyAyLjY2MS0uNTk1LjMzMi0xLjU1LjQxMy0xLjc0NC40MkguNzUxYS43NTEuNzUxIDAgMDAtLjc1Ljc0OCAxMS4zNzYgMTEuMzc2IDAgMDAuNjkyIDQuMDYyYy41NDUgMS40MjggMS4zNTUgMi40OCAyLjQxIDMuMTI0IDEuMTguNzIzIDMuMSAxLjEzNyA1LjI3NSAxLjEzNy45ODMuMDAzIDEuOTYzLS4wODYgMi45My0uMjY2YTEyLjI0OCAxMi4yNDggMCAwMDMuODIzLTEuMzg5Yy45OC0uNTY3IDEuODYtMS4yODggMi42MS0yLjEzNiAxLjI1Mi0xLjQxOCAxLjk5OC0yLjk5NyAyLjU1My00LjRoLjIyMWMxLjM3MiAwIDIuMjE1LS41NDkgMi42OC0xLjAwOS4zMDktLjI5My41NS0uNjUuNzA3LTEuMDQ2bC4wOTgtLjI4OFoiLz48L3N2Zz4=;" vertex="1" parent="1">
          <mxGeometry x="484.40000000000003" y="232" width="60" height="60" as="geometry" />
        </mxCell>
        <mxCell id="z9ePq5IkVnjo2RaBwPbp-15" style="shape=image;editableCssRules=.*;image=data:image/svg+xml,PHN2ZyB2aWV3Qm94PSIwIDAgMjQgMjQiIHhtbG5zPSJodHRwOi8vd3d3LnczLm9yZy8yMDAwL3N2ZyI+PHN0eWxlPip7ZmlsbDojMzI2Q0U1fTwvc3R5bGU+PHBhdGggZD0iTTEwLjIwNCAxNC4zNWwuMDA3LjAxLS45OTkgMi40MTNhNS4xNzEgNS4xNzEgMCAwIDEtMi4wNzUtMi41OTdsMi41NzgtLjQzNy4wMDQuMDA1YS40NC40NCAwIDAgMSAuNDg0LjYwNnptLS44MzMtMi4xMjlhLjQ0LjQ0IDAgMCAwIC4xNzMtLjc1NmwuMDAyLS4wMTFMNy41ODUgOS43YTUuMTQzIDUuMTQzIDAgMCAwLS43MyAzLjI1NWwyLjUxNC0uNzI1LjAwMi0uMDA5em0xLjE0NS0xLjk4YS40NC40NCAwIDAgMCAuNjk5LS4zMzdsLjAxLS4wMDUuMTUtMi42MmE1LjE0NCA1LjE0NCAwIDAgMC0zLjAxIDEuNDQybDIuMTQ3IDEuNTIzLjAwNC0uMDAyem0uNzYgMi43NWwuNzIzLjM0OS43MjItLjM0Ny4xOC0uNzgtLjUtLjYyM2gtLjgwNGwtLjUuNjIzLjE3OS43Nzl6bTEuNS0zLjA5NWEuNDQuNDQgMCAwIDAgLjcuMzM2bC4wMDguMDAzIDIuMTM0LTEuNTEzYTUuMTg4IDUuMTg4IDAgMCAwLTIuOTkyLTEuNDQybC4xNDggMi42MTUuMDAyLjAwMXptMTAuODc2IDUuOTdsLTUuNzczIDcuMTgxYTEuNiAxLjYgMCAwIDEtMS4yNDguNTk0bC05LjI2MS4wMDNhMS42IDEuNiAwIDAgMS0xLjI0Ny0uNTk2bC01Ljc3Ni03LjE4YTEuNTgzIDEuNTgzIDAgMCAxLS4zMDctMS4zNEwyLjEgNS41NzNjLjEwOC0uNDcuNDI1LS44NjQuODYzLTEuMDczTDExLjMwNS41MTNhMS42MDYgMS42MDYgMCAwIDEgMS4zODUgMGw4LjM0NSAzLjk4NWMuNDM4LjIwOS43NTUuNjA0Ljg2MyAxLjA3M2wyLjA2MiA4Ljk1NWMuMTA4LjQ3LS4wMDUuOTYzLS4zMDggMS4zNHptLTMuMjg5LTIuMDU3Yy0uMDQyLS4wMS0uMTAzLS4wMjYtLjE0NS0uMDM0LS4xNzQtLjAzMy0uMzE1LS4wMjUtLjQ3OS0uMDM4LS4zNS0uMDM3LS42MzgtLjA2Ny0uODk1LS4xNDgtLjEwNS0uMDQtLjE4LS4xNjUtLjIxNi0uMjE2bC0uMjAxLS4wNTlhNi40NSA2LjQ1IDAgMCAwLS4xMDUtMi4zMzIgNi40NjUgNi40NjUgMCAwIDAtLjkzNi0yLjE2M2MuMDUyLS4wNDcuMTUtLjEzMy4xNzctLjE1OS4wMDgtLjA5LjAwMS0uMTgzLjA5NC0uMjgyLjE5Ny0uMTg1LjQ0NC0uMzM4Ljc0My0uNTIyLjE0Mi0uMDg0LjI3My0uMTM3LjQxNS0uMjQyLjAzMi0uMDI0LjA3Ni0uMDYyLjExLS4wODkuMjQtLjE5MS4yOTUtLjUyLjEyMy0uNzM2LS4xNzItLjIxNi0uNTA2LS4yMzYtLjc0NS0uMDQ1LS4wMzQuMDI3LS4wOC4wNjItLjExMS4wODgtLjEzNC4xMTYtLjIxNy4yMy0uMzMuMzUtLjI0Ni4yNS0uNDUuNDU4LS42NzMuNjA5LS4wOTcuMDU2LS4yMzkuMDM3LS4zMDMuMDMzbC0uMTkuMTM1YTYuNTQ1IDYuNTQ1IDAgMCAwLTQuMTQ2LTIuMDAzbC0uMDEyLS4yMjNjLS4wNjUtLjA2Mi0uMTQzLS4xMTUtLjE2My0uMjUtLjAyMi0uMjY4LjAxNS0uNTU3LjA1Ny0uOTA1LjAyMy0uMTYzLjA2MS0uMjk4LjA2OC0uNDc1LjAwMS0uMDQtLjAwMS0uMDk5LS4wMDEtLjE0MiAwLS4zMDYtLjIyNC0uNTU1LS41LS41NTUtLjI3NSAwLS40OTkuMjQ5LS40OTkuNTU1bC4wMDEuMDE0YzAgLjA0MS0uMDAyLjA5MiAwIC4xMjguMDA2LjE3Ny4wNDQuMzEyLjA2Ny40NzUuMDQyLjM0OC4wNzguNjM3LjA1Ni45MDZhLjU0NS41NDUgMCAwIDEtLjE2Mi4yNThsLS4wMTIuMjExYTYuNDI0IDYuNDI0IDAgMCAwLTQuMTY2IDIuMDAzIDguMzczIDguMzczIDAgMCAxLS4xOC0uMTI4Yy0uMDkuMDEyLS4xOC4wNC0uMjk3LS4wMjktLjIyMy0uMTUtLjQyNy0uMzU4LS42NzMtLjYwOC0uMTEzLS4xMi0uMTk1LS4yMzQtLjMyOS0uMzQ5LS4wMy0uMDI2LS4wNzctLjA2Mi0uMTExLS4wODhhLjU5NC41OTQgMCAwIDAtLjM0OC0uMTMyLjQ4MS40ODEgMCAwIDAtLjM5OC4xNzZjLS4xNzIuMjE2LS4xMTcuNTQ2LjEyMy43MzdsLjAwNy4wMDUuMTA0LjA4M2MuMTQyLjEwNS4yNzIuMTU5LjQxNC4yNDIuMjk5LjE4NS41NDYuMzM4Ljc0My41MjIuMDc2LjA4Mi4wOS4yMjYuMS4yODhsLjE2LjE0M2E2LjQ2MiA2LjQ2MiAwIDAgMC0xLjAyIDQuNTA2bC0uMjA4LjA2Yy0uMDU1LjA3Mi0uMTMzLjE4NC0uMjE1LjIxNy0uMjU3LjA4MS0uNTQ2LjExLS44OTUuMTQ3LS4xNjQuMDE0LS4zMDUuMDA2LS40OC4wMzktLjAzNy4wMDctLjA5LjAyLS4xMzMuMDNsLS4wMDQuMDAyLS4wMDcuMDAyYy0uMjk1LjA3MS0uNDg0LjM0Mi0uNDIzLjYwOC4wNjEuMjY3LjM0OS40MjkuNjQ1LjM2NWwuMDA3LS4wMDEuMDEtLjAwMy4xMjktLjAyOWMuMTctLjA0Ni4yOTQtLjExMy40NDgtLjE3Mi4zMy0uMTE4LjYwNC0uMjE3Ljg3LS4yNTYuMTEyLS4wMDkuMjMuMDY5LjI4OC4xMDFsLjIxNy0uMDM3YTYuNSA2LjUgMCAwIDAgMi44OCAzLjU5NmwtLjA5LjIxOGMuMDMzLjA4NC4wNjkuMTk5LjA0NC4yODItLjA5Ny4yNTItLjI2My41MTctLjQ1Mi44MTMtLjA5MS4xMzYtLjE4NS4yNDItLjI2OC4zOTktLjAyLjAzNy0uMDQ1LjA5NS0uMDY0LjEzNC0uMTI4LjI3NS0uMDM0LjU5MS4yMTMuNzEuMjQ4LjEyLjU1Ni0uMDA3LjY5LS4yODJ2LS4wMDJjLjAyLS4wMzkuMDQ2LS4wOS4wNjItLjEyNy4wNy0uMTYyLjA5NC0uMzAxLjE0NC0uNDU4LjEzMi0uMzMyLjIwNS0uNjguMzg3LS44OTcuMDUtLjA2LjEzLS4wODIuMjE1LS4xMDVsLjExMy0uMjA1YTYuNDUzIDYuNDUzIDAgMCAwIDQuNjA5LjAxMmwuMTA2LjE5MmMuMDg2LjAyOC4xOC4wNDIuMjU2LjE1NS4xMzYuMjMyLjIyOS41MDcuMzQyLjg0LjA1LjE1Ni4wNzQuMjk1LjE0NS40NTcuMDE2LjAzNy4wNDMuMDkuMDYyLjEyOS4xMzMuMjc2LjQ0Mi40MDIuNjkuMjgyLjI0Ny0uMTE4LjM0MS0uNDM1LjIxMy0uNzEtLjAyLS4wMzktLjA0NS0uMDk2LS4wNjUtLjEzNC0uMDgzLS4xNTYtLjE3Ny0uMjYxLS4yNjgtLjM5OC0uMTktLjI5Ni0uMzQ2LS41NDEtLjQ0My0uNzkzLS4wNC0uMTMuMDA3LS4yMS4wMzgtLjI5NC0uMDE4LS4wMjItLjA1OS0uMTQ0LS4wODMtLjIwMmE2LjQ5OSA2LjQ5OSAwIDAgMCAyLjg4LTMuNjIyYy4wNjQuMDEuMTc2LjAzLjIxMy4wMzguMDc1LS4wNS4xNDQtLjExNC4yOC0uMTA0LjI2Ni4wMzkuNTQuMTM4Ljg3LjI1Ni4xNTQuMDYuMjc3LjEyOC40NDguMTczLjAzNi4wMS4wODguMDE5LjEzLjAyOGwuMDA5LjAwMy4wMDcuMDAxYy4yOTcuMDY0LjU4NC0uMDk4LjY0NS0uMzY1LjA2LS4yNjYtLjEyOC0uNTM3LS40MjMtLjYwOHpNMTYuNCA5LjcwMWwtMS45NSAxLjc0NnYuMDA1YS40NC40NCAwIDAgMCAuMTczLjc1N2wuMDAzLjAxIDIuNTI2LjcyOGE1LjE5OSA1LjE5OSAwIDAgMC0uMTA4LTEuNjc0QTUuMjA4IDUuMjA4IDAgMCAwIDE2LjQgOS43em0tNC4wMTMgNS4zMjVhLjQzNy40MzcgMCAwIDAtLjQwNC0uMjMyLjQ0LjQ0IDAgMCAwLS4zNzIuMjMzaC0uMDAybC0xLjI2OCAyLjI5MmE1LjE2NCA1LjE2NCAwIDAgMCAzLjMyNi4wMDNsLTEuMjctMi4yOTZoLS4wMXptMS44ODgtMS4yOTNhLjQ0LjQ0IDAgMCAwLS4yNy4wMzYuNDQuNDQgMCAwIDAtLjIxNC41NzJsLS4wMDMuMDA0IDEuMDEgMi40MzhhNS4xNSA1LjE1IDAgMCAwIDIuMDgxLTIuNjE1bC0yLjYtLjQ0LS4wMDQuMDA1eiIvPjwvc3ZnPg==;" vertex="1" parent="1">
          <mxGeometry x="434.4" y="240" width="50" height="50" as="geometry" />
        </mxCell>
        <mxCell id="z9ePq5IkVnjo2RaBwPbp-16" value="" style="image;aspect=fixed;perimeter=ellipsePerimeter;html=1;align=center;shadow=0;dashed=0;spacingTop=3;image=img/lib/active_directory/generic_server.svg;" vertex="1" parent="1">
          <mxGeometry x="450" y="320" width="44.8" height="80" as="geometry" />
        </mxCell>
        <mxCell id="z9ePq5IkVnjo2RaBwPbp-17" style="shape=image;editableCssRules=.*;image=data:image/svg+xml,PHN2ZyB2aWV3Qm94PSIwIDAgMjQgMjQiIHhtbG5zPSJodHRwOi8vd3d3LnczLm9yZy8yMDAwL3N2ZyI+PHN0eWxlPip7ZmlsbDojNDQ3OUExfTwvc3R5bGU+PHBhdGggZD0iTTE2LjQwNSA1LjUwMWMtLjExNSAwLS4xOTMuMDE0LS4yNzQuMDMzdi4wMTNoLjAxNGMuMDU0LjEwNC4xNDYuMTguMjE0LjI3My4wNTQuMTA3LjEuMjE0LjE1NC4zMmwuMDE0LS4wMTVjLjA5NC0uMDY2LjE0LS4xNzIuMTQtLjMzMy0uMDQtLjA0Ny0uMDQ2LS4wOTQtLjA4LS4xNC0uMDQtLjA2Ny0uMTI2LS4xLS4xOC0uMTUzek01Ljc3IDE4LjY5NWgtLjkyN2E1MC44NTQgNTAuODU0IDAgMDAtLjI3LTQuNDFoLS4wMDhsLTEuNDEgNC40MUgyLjQ1bC0xLjQtNC40MWgtLjAxYTcyLjg5MiA3Mi44OTIgMCAwMC0uMTk1IDQuNDFIMGMuMDU1LTEuOTY2LjE5Mi0zLjgxLjQxLTUuNTNoMS4xNWwxLjMzNSA0LjA2NGguMDA4bDEuMzQ3LTQuMDY0aDEuMDk1Yy4yNDIgMi4wMTUuMzg0IDMuODYuNDI4IDUuNTN6bTQuMDE3LTQuMDhjLS4zNzggMi4wNDUtLjg3NiAzLjUzMy0xLjQ5MiA0LjQ2LS40ODIuNzE2LTEuMDEgMS4wNzMtMS41ODMgMS4wNzMtLjE1MyAwLS4zNC0uMDQ2LS41NjYtLjEzOHYtLjQ5NGMuMTEuMDE3LjI0LjAyNi4zODYuMDI2LjI2OCAwIC40ODMtLjA3NS42NDctLjIyMi4xOTctLjE4LjI5NS0uMzgyLjI5NS0uNjA1IDAtLjE1NS0uMDc3LS40Ny0uMjMtLjk0NEw2LjIzIDE0LjYxNWguOTFsLjcyNyAyLjM2Yy4xNjQuNTM2LjIzMy45MS4yMDUgMS4xMjMuNC0xLjA2NC42NzgtMi4yMjcuODM1LTMuNDgzem0xMi4zMjUgNC4wOGgtMi42M3YtNS41M2guODg1djQuODVoMS43NDV6bS0zLjMyLjEzNWwtMS4wMTYtLjVjLjA5LS4wNzYuMTc3LS4xNTguMjU1LS4yNS40MzMtLjUwNi42NDgtMS4yNTguNjQ4LTIuMjUzIDAtMS44My0uNzE4LTIuNzQ2LTIuMTU1LTIuNzQ2LS43MDQgMC0xLjI1NC4yMzItMS42NS42OTctLjQzLjUwOC0uNjQ2IDEuMjU2LS42NDYgMi4yNDUgMCAuOTcyLjE5IDEuNjg2LjU3NCAyLjE0LjM1LjQxLjg3Ny42MTUgMS41ODMuNjE1LjI2NCAwIC41MDYtLjAzMy43MjUtLjA5OGwxLjMyNS43NzIuMzYtLjYyMnpNMTUuNSAxNy41ODhjLS4yMjUtLjM2LS4zMzctLjk0LS4zMzctMS43MzYgMC0xLjM5My40MjQtMi4wOSAxLjI3LTIuMDkuNDQzIDAgLjc3LjE2Ny45NzcuNS4yMjQuMzYyLjMzNi45MzYuMzM2IDEuNzIzIDAgMS40MDQtLjQyNCAyLjEwOC0xLjI3IDIuMTA4LS40NDUgMC0uNzctLjE2Ny0uOTc4LS41em0tMS42NTgtLjQyNWMwIC40Ny0uMTcyLjg1Ni0uNTE2IDEuMTU2LS4zNDQuMy0uODAzLjQ1LTEuMzg0LjQ1LS41NDMgMC0xLjA2NC0uMTcyLTEuNTczLS41MTVsLjIzNy0uNDc2Yy40MzguMjIuODMzLjMyOCAxLjE5LjMyOC4zMzIgMCAuNTkzLS4wNzMuNzgzLS4yMmEuNzU0Ljc1NCAwIDAwLjMtLjYxNWMwLS4zMy0uMjMtLjYxLS42NDgtLjg0NS0uMzg4LS4yMTMtMS4xNjMtLjY1Ny0xLjE2My0uNjU3LS40MjItLjMwNy0uNjMyLS42MzYtLjYzMi0xLjE3NyAwLS40NS4xNTctLjgxLjQ3LTEuMDg1LjMxNS0uMjc4LjcyLS40MTUgMS4yMi0uNDE1LjUxMiAwIC45OC4xMzYgMS40LjQxbC0uMjEzLjQ3NmEyLjcyNiAyLjcyNiAwIDAwLTEuMDY0LS4yM2MtLjI4MyAwLS41MDIuMDY4LS42NTQuMjA2YS42ODUuNjg1IDAgMDAtLjI0OC41MjRjMCAuMzI4LjIzNC42MS42NjYuODUuMzkzLjIxNSAxLjE4Ny42NyAxLjE4Ny42Ny40MzMuMzA1LjY0OC42My42NDggMS4xNjh6bTkuMzgyLTUuODUyYy0uNTM1LS4wMTQtLjk1LjA0LTEuMjk3LjE4OC0uMS4wNC0uMjYuMDQtLjI3NC4xNjcuMDU1LjA1My4wNjMuMTQuMTEuMjE0LjA4LjEzNC4yMTguMzEzLjM0Ni40MDcuMTQuMTEuMjguMjE2LjQyNy4zMS4yNi4xNi41NTUuMjU1LjgxLjQxNi4xNDUuMDk0LjI5My4yMTMuNDQuMzEzLjA3My4wNS4xMi4xNC4yMTQuMTcydi0uMDJjLS4wNDYtLjA2LS4wNi0uMTQ3LS4xMDUtLjIxNC0uMDY3LS4wNjctLjEzNC0uMTI3LS4yLS4xOTNhMy4yMjMgMy4yMjMgMCAwMC0uNjk1LS42NzVjLS4yMTQtLjE0Ni0uNjgyLS4zNS0uNzctLjU5NWwtLjAxMy0uMDE0Yy4xNDYtLjAxMy4zMi0uMDY2LjQ2LS4xMDYuMjI3LS4wNi40MzUtLjA0Ny42Ny0uMTA2LjEwNi0uMDI3LjIxMy0uMDYuMzItLjA5NHYtLjA2Yy0uMTItLjEyLS4yMS0uMjgzLS4zMzQtLjM5NWE4Ljg2NyA4Ljg2NyAwIDAwLTEuMTA0LS44MjNjLS4yMS0uMTM0LS40NzYtLjIyLS42OTctLjMzNC0uMDgtLjA0LS4yMTQtLjA2LS4yNi0uMTI3LS4xMi0uMTQ2LS4xOS0uMzQtLjI3NS0uNTE0YTE3LjY5IDE3LjY5IDAgMDEtLjU0Ny0xLjE2M2MtLjEyLS4yNjItLjE5My0uNTIzLS4zNC0uNzYzLS42OS0xLjEzNy0xLjQzNy0xLjgyNi0yLjU4Ni0yLjUtLjI0Ny0uMTQtLjU0My0uMi0uODU2LS4yNzQtLjE2Ny0uMDA4LS4zMzQtLjAyLS41LS4wMjctLjExLS4wNDctLjIxNi0uMTc0LS4zMS0uMjM1LS4zOC0uMjQtMS4zNjQtLjc2LTEuNjQ0LS4wNzItLjE4LjQzNC4yNjcuODYyLjQyMiAxLjA4Mi4xMTUuMTUzLjI2LjMyOC4zNC41LjA0Ny4xMTYuMDYuMjM1LjEwNy4zNTYuMTA2LjI5NC4yMDcuNjIyLjM0Ny44OTcuMDczLjE0LjE1My4yODcuMjQ3LjQxMy4wNTQuMDczLjE0Ni4xMDcuMTY3LjIyNy0uMDk0LjEzNi0uMS4zMzQtLjE1NC41LS4yNC43NTctLjE0NiAxLjY5My4xOTQgMi4yNS4xMDcuMTY2LjM2Mi41MzQuNzAzLjM5My4zLS4xMi4yMzQtLjUuMzItLjgzNS4wMi0uMDguMDA3LS4xMzMuMDQ4LS4xODd2LjAxNWMuMDk0LjE4OC4xODguMzY3LjI3NC41NTUuMjA2LjMyOC41NjYuNjY4Ljg2Ny44OTUuMTYuMTIuMjg3LjMyOC40ODcuNDAydi0uMDJoLS4wMTVjLS4wNDMtLjA1OC0uMS0uMDg2LS4xNTQtLjEzM2EzLjQ0NSAzLjQ0NSAwIDAxLS4zNS0uNCA4Ljc2IDguNzYgMCAwMS0uNzQ3LTEuMjE4Yy0uMTEtLjIxLS4yMDItLjQzNi0uMjktLjY0My0uMDQtLjA4LS4wNC0uMi0uMTA3LS4yNC0uMS4xNDYtLjI0Ny4yNzMtLjMyLjQ1My0uMTI3LjI4OC0uMTQuNjQyLS4xODggMS4wMS0uMDI3LjAwNy0uMDE0IDAtLjAyNy4wMTQtLjIxNC0uMDUyLS4yODctLjI3NC0uMzY3LS40Ni0uMi0uNDc1LS4yMzMtMS4yMzgtLjA2LTEuNzg1LjA0Ny0uMTQuMjQ3LS41ODIuMTY3LS43MTYtLjA0Mi0uMTI3LS4xNzQtLjItLjI0Ny0uMzAzYTIuNDc4IDIuNDc4IDAgMDEtLjI0LS40MjdjLS4xNi0uMzc0LS4yNC0uNzg4LS40MTQtMS4xNjItLjA4LS4xNzMtLjIyLS4zNTQtLjMzNC0uNTEzLS4xMjctLjE4LS4yNjctLjMwNy0uMzY4LS41Mi0uMDMzLS4wNzMtLjA4LS4xOTQtLjAyNy0uMjc0LjAxNC0uMDU0LjA0Mi0uMDc1LjA5NC0uMDkuMDg4LS4wNzIuMzM1LjAyMi40MjIuMDYyLjI0Ny4xLjQ1NS4xOTQuNjYyLjMzNC4wOTQuMDY2LjE5NS4xOTMuMzE1LjIyNmguMTRjLjIxNC4wNDcuNDU1LjAxNC42NTUuMDczLjM1NS4xMTQuNjc1LjI4Ljk2Mi40NmE1Ljk1MyA1Ljk1MyAwIDAxMi4wODUgMi4yODZjLjA4LjE1NC4xMTUuMjk1LjE4OC40NTUuMTQuMzMuMzEzLjY2My40NTUuOTgyLjE0LjMxNS4yNzUuNjM2LjQ3Ni44OTcuMS4xNC41MDIuMjEzLjY4Mi4yODYuMTMzLjA2LjM0LjExNS40Ni4xODguMjMuMTQuNDU0LjMuNjcuNDU0LjExLjA3Ni40NDMuMjQzLjQ2My4zNzh6Ii8+PC9zdmc+;" vertex="1" parent="1">
          <mxGeometry x="630.5" y="329.5" width="60" height="60" as="geometry" />
        </mxCell>
        <mxCell id="z9ePq5IkVnjo2RaBwPbp-18" style="shape=image;editableCssRules=.*;image=data:image/svg+xml,PHN2ZyB2aWV3Qm94PSIwIDAgMjQgMjQiIHhtbG5zPSJodHRwOi8vd3d3LnczLm9yZy8yMDAwL3N2ZyI+PHN0eWxlPip7ZmlsbDojNDE2OUUxfTwvc3R5bGU+PHBhdGggZD0iTTIzLjU1OTQgMTQuNzIyOGEuNTI2OS41MjY5IDAgMCAwLS4wNTYzLS4xMTkxYy0uMTM5LS4yNjMyLS40NzY4LS4zNDE4LTEuMDA3NC0uMjMyMS0xLjY1MzMuMzQxMS0yLjI5MzUuMTMxMi0yLjUyNTYtLjAxOTEgMS4zNDItMi4wNDgyIDIuNDQ1LTQuNTIyIDMuMDQxMS02LjgyOTcuMjcxNC0xLjA1MDcuNzk4Mi0zLjUyMzcuMTIyMi00LjczMTZhMS41NjQxIDEuNTY0MSAwIDAgMC0uMTUwOS0uMjM1QzIxLjY5MzEuOTA4NiAxOS44MDA3LjAyNDggMTcuNTA5OS4wMDA1Yy0xLjQ5NDctLjAxNTgtMi43NzA1LjM0NjEtMy4xMTYxLjQ3OTRhOS40NDkgOS40NDkgMCAwIDAtLjUxNTktLjA4MTYgOC4wNDQgOC4wNDQgMCAwIDAtMS4zMTE0LS4xMjc4Yy0xLjE4MjItLjAxODQtMi4yMDM4LjI2NDItMy4wNDk4Ljg0MDYtLjg1NzMtLjMyMTEtNC43ODg4LTEuNjQ1LTcuMjIxOS4wNzg4Qy45MzU5IDIuMTUyNi4zMDg2IDMuODczMy40MzAyIDYuMzA0M2MuMDQwOS44MTguNTA2OSAzLjMzNCAxLjI0MjMgNS43NDM2LjQ1OTggMS41MDY1LjkzODcgMi43MDE5IDEuNDMzNCAzLjU4Mi41NTMuOTk0MiAxLjEyNTkgMS41OTMzIDEuNzE0MyAxLjc4OTUuNDQ3NC4xNDkxIDEuMTMyNy4xNDQxIDEuODU4MS0uNzI3OS44MDEyLS45NjM1IDEuNTkwMy0xLjgyNTggMS45NDQ2LTIuMjA2OS40MzUxLjIzNTUuOTA2NC4zNjI1IDEuMzkuMzc3MmEuMDU2OS4wNTY5IDAgMCAwIC4wMDA0LjAwNDEgMTEuMDMxMiAxMS4wMzEyIDAgMCAwLS4yNDcyLjMwNTRjLS4zMzg5LjQzMDItLjQwOTQuNTE5Ny0xLjUwMDIuNzQ0My0uMzEwMi4wNjQtMS4xMzQ0LjIzMzktMS4xNDY0LjgxMTUtLjAwMjUuMTIyNC4wMzI5LjIzMDkuMDkxOS4zMjY4LjIyNjkuNDIzMS45MjE2LjYwOTcgMS4wMTUuNjMzMSAxLjMzNDUuMzMzNSAyLjUwNDQuMDkyIDMuMzcxNC0uNjc4Ny0uMDE3IDIuMjMxLjA3NzUgNC40MTc0LjM0NTQgNS4wODc0LjIyMTIuNTUyOS43NjE4IDEuOTA0NSAyLjQ2OTIgMS45MDQzLjI1MDUgMCAuNTI2My0uMDI5MS44Mjk2LS4wOTQxIDEuNzgxOS0uMzgyMSAyLjU1NTctMS4xNjk2IDIuODU1LTIuOTA1OS4xNTAzLS44NzA3LjQwMTYtMi44NzUzLjUzODgtNC4xMDEyLjAxNjktLjA3MDMuMDM1Ny0uMTIwNy4wNTctLjEzNjIuMDAwNy0uMDAwNS4wNjk3LS4wNDcxLjQyNzIuMDMwN2EuMzY3My4zNjczIDAgMCAwIC4wNDQzLjAwNjhsLjI1MzkuMDIyMy4wMTQ5LjAwMWMuODQ2OC4wMzg0IDEuOTExNC0uMTQyNiAyLjUzMTItLjQzMDguNjQzOC0uMjk4OCAxLjgwNTctMS4wMzIzIDEuNTk1MS0xLjY2OTh6TTIuMzcxIDExLjg3NjVjLS43NDM1LTIuNDM1OC0xLjE3NzktNC44ODUxLTEuMjEyMy01LjU3MTktLjEwODYtMi4xNzE0LjQxNzEtMy42ODI5IDEuNTYyMy00LjQ5MjcgMS44MzY3LTEuMjk4NiA0LjgzOTgtLjU0MDggNi4xMDgtLjEzLS4wMDMyLjAwMzItLjAwNjYuMDA2MS0uMDA5OC4wMDk0LTIuMDIzOCAyLjA0NC0xLjk3NTggNS41MzYtMS45NzA4IDUuNzQ5NS0uMDAwMi4wODIzLjAwNjYuMTk4OS4wMTYyLjM1OTMuMDM0OC41ODczLjA5OTYgMS42ODA0LS4wNzM1IDIuOTE4NC0uMTYwOSAxLjE1MDQuMTkzNyAyLjI3NjQuOTcyOCAzLjA4OTIuMDgwNi4wODQxLjE2NDguMTYzMS4yNTE4LjIzNzQtLjM0NjguMzcxNC0xLjEwMDQgMS4xOTI2LTEuOTAyNSAyLjE1NzYtLjU2NzcuNjgyNS0uOTU5Ny41NTE3LTEuMDg4Ni41MDg3LS4zOTE5LS4xMzA3LS44MTMtLjU4NzEtMS4yMzgxLTEuMzIyMy0uNDc5Ni0uODM5LS45NjM1LTIuMDMxNy0xLjQxNTUtMy41MTI2em02LjAwNzIgNS4wODcxYy0uMTcxMS0uMDQyOC0uMzI3MS0uMTEzMi0uNDMyMi0uMTc3Mi4wODg5LS4wMzk0LjIzNzQtLjA5MDIuNDgzMy0uMTQwOSAxLjI4MzMtLjI2NDEgMS40ODE1LS40NTA2IDEuOTE0My0xLjAwMDIuMDk5Mi0uMTI2LjIxMTYtLjI2ODcuMzY3My0uNDQyNmEuMzU0OS4zNTQ5IDAgMCAwIC4wNzM3LS4xMjk4Yy4xNzA4LS4xNTEzLjI3MjQtLjEwOTkuNDM2OS0uMDQxNy4xNTYuMDY0Ni4zMDc4LjI2LjM2OTUuNDc1Mi4wMjkxLjEwMTYuMDYxOS4yOTQ1LS4wNDUyLjQ0NDQtLjkwNDMgMS4yNjU4LTIuMjIxNiAxLjI0OTQtMy4xNjc2IDEuMDEyOHptMi4wOTQtMy45ODgtLjA1MjUuMTQxYy0uMTMzLjM1NjYtLjI1NjcuNjg4MS0uMzMzNCAxLjAwMy0uNjY3NC0uMDAyMS0xLjMxNjgtLjI4NzItMS44MTA1LS44MDI0LS42Mjc5LS42NTUxLS45MTMxLTEuNTY2NC0uNzgyNS0yLjUwMDQuMTgyOC0xLjMwNzkuMTE1My0yLjQ0NjguMDc5LTMuMDU4Ni0uMDA1LS4wODU3LS4wMDk1LS4xNjA3LS4wMTIyLS4yMTk5LjI5NTctLjI2MjEgMS42NjU5LS45OTYyIDIuNjQyOS0uNzcyNC40NDU5LjEwMjIuNzE3Ni40MDU3LjgzMDUuOTI4LjU4NDYgMi43MDM4LjA3NzQgMy44MzA3LS4zMzAyIDQuNzM2My0uMDg0LjE4NjYtLjE2MzMuMzYyOS0uMjMxMS41NDU0em03LjM2MzcgNC41NzI1Yy0uMDE2OS4xNzY4LS4wMzU4LjM3Ni0uMDYxOC41OTU5bC0uMTQ2LjQzODNhLjM1NDcuMzU0NyAwIDAgMC0uMDE4Mi4xMDc3Yy0uMDA1OS40NzQ3LS4wNTQuNjQ4OS0uMTE1Ljg2OTMtLjA2MzQuMjI5Mi0uMTM1My40ODkxLS4xNzk0IDEuMDU3NS0uMTEgMS40MTQzLS44NzgyIDIuMjI2Ny0yLjQxNzIgMi41NTY1LTEuNTE1NS4zMjUxLTEuNzg0My0uNDk2OC0yLjAyMTItMS4yMjE3YTYuNTgyNCA2LjU4MjQgMCAwIDAtLjA3NjktLjIyNjZjLS4yMTU0LS41ODU4LS4xOTExLTEuNDExOS0uMTU3NC0yLjU1NTEuMDE2NS0uNTYxMi0uMDI0OS0xLjkwMTMtLjMzMDItMi42NDYyLjAwNDQtLjI5MzIuMDEwNi0uNTkwOS4wMTktLjg5MThhLjM1MjkuMzUyOSAwIDAgMC0uMDE1My0uMTEyNiAxLjQ5MjcgMS40OTI3IDAgMCAwLS4wNDM5LS4yMDhjLS4xMjI2LS40MjgzLS40MjEzLS43ODY2LS43Nzk3LS45MzUxLS4xNDI0LS4wNTktLjQwMzgtLjE2NzItLjcxNzgtLjA4NjkuMDY3LS4yNzYuMTgzMS0uNTg3NS4zMDktLjkyNDlsLjA1MjktLjE0MmMuMDU5NS0uMTYuMTM0LS4zMjU3LjIxMy0uNTAxMi40MjY1LS45NDc2IDEuMDEwNi0yLjI0NTMuMzc2Ni01LjE3NzItLjIzNzQtMS4wOTgxLTEuMDMwNC0xLjYzNDMtMi4yMzI0LTEuNTA5OC0uNzIwNy4wNzQ2LTEuMzc5OS4zNjU0LTEuNzA4OC41MzIxYTUuNjcxNiA1LjY3MTYgMCAwIDAtLjE5NTguMTA0MWMuMDkxOC0xLjEwNjQuNDM4Ni0zLjE3NDEgMS43MzU3LTQuNDgyM2E0LjAzMDYgNC4wMzA2IDAgMCAxIC4zMDMzLS4yNzYuMzUzMi4zNTMyIDAgMCAwIC4xNDQ3LS4wNjQ0Yy43NTI0LS41NzA2IDEuNjk0NS0uODUwNiAyLjgwMi0uODMyNS40MDkxLjAwNjcuODAxNy4wMzM5IDEuMTc0Mi4wODEgMS45MzkuMzU0NCAzLjI0MzkgMS40NDY4IDQuMDM1OSAyLjM4MjcuODE0My45NjIzIDEuMjU1MiAxLjkzMTUgMS40MzEyIDIuNDU0My0xLjMyMzItLjEzNDYtMi4yMjM0LjEyNjgtMi42Nzk3Ljc3OS0uOTkyNiAxLjQxODkuNTQzIDQuMTcyOSAxLjI4MTEgNS40OTY0LjEzNTMuMjQyNi4yNTIyLjQ1MjIuMjg4OS41NDEzLjI0MDMuNTgyNS41NTE1Ljk3MTMuNzc4NyAxLjI1NTIuMDY5Ni4wODcuMTM3Mi4xNzE0LjE4ODUuMjQ1LS40MDA4LjExNTUtMS4xMjA4LjM4MjUtMS4wNTUyIDEuNzE3LS4wMTIzLjE1NjMtLjA0MjMuNDQ2OS0uMDgzNC44MTQ4LS4wNDYxLjIwNzctLjA3MDIuNDYwMy0uMDk5NC43NjYyem0uODkwNS0xLjYyMTFjLS4wNDA1LS44MzE2LjI2OTEtLjkxODUuNTk2Ny0xLjAxMDVhMi44NTY2IDIuODU2NiAwIDAgMCAuMTM1LS4wNDA2IDEuMjAyIDEuMjAyIDAgMCAwIC4xMzQyLjEwM2MuNTcwMy4zNzY1IDEuNTgyMy40MjEzIDMuMDA2OC4xMzQ0LS4yMDE2LjE3NjktLjUxODkuMzk5NC0uOTUzMy42MDExLS40MDk4LjE5MDMtMS4wOTU3LjMzMy0xLjc0NzMuMzYzNi0uNzE5Ny4wMzM2LTEuMDg1OS0uMDgwNy0xLjE3MjEtLjE1MXptLjU2OTUtOS4yNzEyYy0uMDA1OS4zNTA4LS4wNTQyLjY2OTItLjEwNTQgMS4wMDE3LS4wNTUuMzU3Ni0uMTEyLjcyNzQtLjEyNjQgMS4xNzYyLS4wMTQyLjQzNjguMDQwNC44OTA5LjA5MzIgMS4zMzAxLjEwNjYuODg3LjIxNiAxLjgwMDMtLjIwNzUgMi43MDE0YTMuNTI3MiAzLjUyNzIgMCAwIDEtLjE4NzYtLjM4NTZjLS4wNTI3LS4xMjc2LS4xNjY5LS4zMzI2LS4zMjUxLS42MTYyLS42MTU2LTEuMTA0MS0yLjA1NzQtMy42ODk2LTEuMzE5My00Ljc0NDYuMzc5NS0uNTQyNyAxLjM0MDgtLjU2NjEgMi4xNzgxLS40NjN6bS4yMjg0IDcuMDEzN2ExMi4zNzYyIDEyLjM3NjIgMCAwIDAtLjA4NTMtLjEwNzRsLS4wMzU1LS4wNDQ0Yy43MjYyLTEuMTk5NS41ODQyLTIuMzg2Mi40NTc4LTMuNDM4NS0uMDUxOS0uNDMxOC0uMTAwOS0uODM5Ni0uMDg4NS0xLjIyMjYuMDEyOS0uNDA2MS4wNjY2LS43NTQzLjExODUtMS4wOTExLjA2MzktLjQxNS4xMjg4LS44NDQzLjExMDktMS4zNTA1LjAxMzQtLjA1MzEuMDE4OC0uMTE1OC4wMTE4LS4xOTAyLS4wNDU3LS40ODU1LS41OTk5LTEuOTM4LTEuNzI5NC0zLjI1My0uNjA3Ni0uNzA3My0xLjQ4OTYtMS40OTcyLTIuNjg4OS0yLjAzOTUuNTI1MS0uMTA2NiAxLjIzMjgtLjIwMzUgMi4wMjQ0LS4xODU5IDIuMDUxNS4wNDU2IDMuNjc0Ni44MTM1IDQuODI0MiAyLjI4MjRhLjkwOC45MDggMCAwIDEgLjA2NjcuMTAwMmMuNzIzMSAxLjM1NTYtLjI3NjIgNi4yNzUxLTIuOTg2NyAxMC41NDA1em0tOC44MTY2LTYuMTE2MmMtLjAyNS4xNzk0LS4zMDg5LjQyMjUtLjYyMTEuNDIyNWEuNTgyMS41ODIxIDAgMCAxLS4wODA5LS4wMDU2Yy0uMTg3My0uMDI2LS4zNzY1LS4xNDQtLjUwNTktLjMxNTYtLjA0NTgtLjA2MDUtLjEyMDMtLjE3OC0uMTA1NS0uMjg0NC4wMDU1LS4wNDAxLjAyNjEtLjA5ODUuMDkyNS0uMTQ4OC4xMTgyLS4wODk0LjM1MTgtLjEyMjYuNjA5Ni0uMDg2Ny4zMTYzLjA0NDEuNjQyNi4xOTM4LjYxMTMuNDE4NnptNy45MzA1LS40MTE0Yy4wMTExLjA3OTItLjA0OS4yMDEtLjE1MzEuMzEwMi0uMDY4My4wNzE3LS4yMTIuMTk2MS0uNDA3OS4yMjMyYS41NDU2LjU0NTYgMCAwIDEtLjA3NS4wMDUyYy0uMjkzNSAwLS41NDE0LS4yMzQ0LS41NjA3LS4zNzE3LS4wMjQtLjE3NjUuMjY0MS0uMzEwNi41NjExLS4zNTIuMjk3LS4wNDE0LjYxMTEuMDA4OC42MzU2LjE4NTF6Ii8+PC9zdmc+;" vertex="1" parent="1">
          <mxGeometry x="630.5" y="399.5" width="60" height="60" as="geometry" />
        </mxCell>
        <mxCell id="z9ePq5IkVnjo2RaBwPbp-19" style="shape=image;editableCssRules=.*;image=data:image/svg+xml,PHN2ZyB2aWV3Qm94PSIwIDAgMjQgMjQiIHhtbG5zPSJodHRwOi8vd3d3LnczLm9yZy8yMDAwL3N2ZyI+PHN0eWxlPip7ZmlsbDojMDAzNTQ1fTwvc3R5bGU+PHBhdGggZD0iTTIzLjE1NyA0LjQxMmMtLjY3Ni4yODQtLjc5LjMxLTEuNjczLjM3Mi0uNjUuMDQ1LS43NTcuMDU3LTEuMjEyLjIwOS0uNzUuMjQ2LTEuMzk1Ljc1LTIuMDIgMS41OS0uMjk2LjM5OC0xLjI0OSAxLjkxMy0xLjI0OSAxLjk4OCAwIC4wNTctLjY1Ljk5OC0uOTE1IDEuMzItLjU3NC43MTMtMS4wOCAxLjA3OS0yLjE0IDEuNTktLjc3LjM2LTEuMjI0LjUyNC00LjEwMiAxLjQ3Ny0xLjA3My4zNTMtMi4xMzMuNzM4LTIuMzY3Ljg2NC0uODUyLjQ0OS0xLjUxNSAxLjAzNi0yLjIwMyAxLjkzOC0xLjAwMyAxLjMyLS45NzIgMS4zMTMtMy4wNDIuOTQ3YTEyLjI2NCAxMi4yNjQgMCAwMC0uNjc1LS4wNjNjLS42NDQtLjA1LTEuMDIzLjA0NC0xLjMzMi4zMzRMMCAxNy4xOTNsLjE3Ny4wODhjLjA5NC4wNS4zNTMuMjM0LjU2MS4zOTguMjE1LjE3LjQ2MS4zNDcuNTUuMzkxLjA4OC4wNDQuMTcuMDg4LjE4My4xMDEuMDEyLjAxMy0uMDg5LjE3LS4yMjguMzUzLS40MzUuNTgxLS41OTMuODcxLS41NzQgMS4wNDguMDE5LjE2NC4wMzIuMTcuNDMuMTcuNTE3LS4wMDYuODI2LS4wNTYgMS4yNjEtLjIwOC42NS0uMjMzIDIuMDU4LS45NCAyLjc4NC0xLjQuNzc2LS41IDEuNzE3LS45OTggMS45NTYtMS4wNDIuMDgyLS4wMi4zNTQtLjA3LjU5NC0uMTE0LjU4LS4xMDcgMS40NjQtLjA5NSAyLjU4Ny4wNS4xMDguMDEzLjM3My4wNDUuNi4wNjQuMjI3LjAyNS40My4wNTcuNDU0LjA3Ni4wMjYuMDEyLjQ3NC4wMzcuOTk4LjA1Ni45MzQuMDI2IDEuMTA0LjAwNyAxLjMtLjE4OS4xMjYtLjEzMy4zODUtLjYzMS40OTgtLjk4NS4yMDktLjY0My40MTctLjkyMS4zNjYtLjQ5Mi0uMTEzLjk2Ni0uMzIyIDEuNjkyLS43MTMgMi40MTEtLjI1OS40OTktLjY2MyAxLjA5Mi0uOTM0IDEuMzk1LS4zMjIuMzQ3LS4zMTUuMzYuMDg4LjMxNS42MTktLjA2MyAxLjQ3MS0uMzk3IDIuMDk2LS44Mi44MjctLjU2MiAxLjY0Ny0xLjY5MSAyLjE5LTMuMDMuMTA3LS4yNy4yMi0uMjIuMTgzLjA4My0uMDEzLjA5NC0uMDM4LjMxNS0uMDU3LjQ5OGwtLjAzMS4zMjguMzUzLS4yMDJjLjgzMy0uNDggMS40MTQtMS4yNjIgMi4xMjctMi44ODQuMjI3LS41MTguODc3LTIuOTIyIDEuMDczLTMuOTc2YTkuNjQgOS42NCAwIDAxLjI3MS0xLjA0MmMuMTI3LS40MjkuMTk2LS41NTUuNDgtLjg1OC4xODMtLjE5LjYyNS0uNTU1Ljk3OC0uODA4LjcyLS41MDUuOTUzLS43NSAxLjE4Ny0xLjIwNS4yMDgtLjQxNy4yODQtMS4xMy4xMzItMS4zNTctLjEzMi0uMjAyLS4yODQtLjE5Ni0uNzYzLjAwNloiLz48L3N2Zz4=;" vertex="1" parent="1">
          <mxGeometry x="690.5" y="329.5" width="60" height="60" as="geometry" />
        </mxCell>
        <mxCell id="z9ePq5IkVnjo2RaBwPbp-20" value="" style="dashed=0;outlineConnect=0;html=1;align=center;labelPosition=center;verticalLabelPosition=bottom;verticalAlign=top;shape=mxgraph.weblogos.oracle;fillColor=#FF0000;strokeColor=none" vertex="1" parent="1">
          <mxGeometry x="690.5" y="399.5" width="70" height="20" as="geometry" />
        </mxCell>
        <mxCell id="z9ePq5IkVnjo2RaBwPbp-21" style="shape=image;editableCssRules=.*;image=data:image/svg+xml,PHN2ZyB2aWV3Qm94PSIwIDAgMjQgMjQiIHhtbG5zPSJodHRwOi8vd3d3LnczLm9yZy8yMDAwL3N2ZyI+PHN0eWxlPip7ZmlsbDojMDAzQjU3fTwvc3R5bGU+PHBhdGggZD0iTTIxLjY3OC41MjFjLTEuMDMyLS45Mi0yLjI4LS41NS0zLjUxMy41NDRhOC43MSA4LjcxIDAgMCAwLS41NDcuNTM1Yy0yLjEwOSAyLjIzNy00LjA2NiA2LjM4LTQuNjc0IDkuNTQ0LjIzNy40OC40MjIgMS4wOTMuNTQ0IDEuNTYxYTEzLjA0NCAxMy4wNDQgMCAwIDEgLjE2NC43MDNzLS4wMTktLjA3MS0uMDk2LS4yOTZsLS4wNS0uMTQ2YTEuNjg5IDEuNjg5IDAgMCAwLS4wMzMtLjA4Yy0uMTM4LS4zMi0uNTE4LS45OTUtLjY4Ni0xLjI4OS0uMTQzLjQyMy0uMjcuODE4LS4zNzYgMS4xNzYuNDg0Ljg4NC43NzggMi40Ljc3OCAyLjRzLS4wMjUtLjA5OS0uMTQ3LS40NDJjLS4xMDctLjMwMy0uNjQ0LTEuMjQ0LS43NzItMS40NjQtLjIxNy44MDQtLjMwNCAxLjM0Ni0uMjI2IDEuNDc4LjE1Mi4yNTYuMjk2LjY5OC40MjIgMS4xODYuMjg2IDEuMS40ODUgMi40NC40ODUgMi40NGwuMDE3LjIyNGEyMi40MSAyMi40MSAwIDAgMCAuMDU2IDIuNzQ4Yy4wOTUgMS4xNDYuMjczIDIuMTMuNSAyLjY1N2wuMTU1LS4wODRjLS4zMzQtMS4wMzgtLjQ3LTIuMzk5LS40MS0zLjk2Ny4wOS0yLjM5OC42NDItNS4yOSAxLjY2MS04LjMwNCAxLjcyMy00LjU1IDQuMTEzLTguMjAxIDYuMy05Ljk0NS0xLjk5MyAxLjgtNC42OTIgNy42My01LjUgOS43ODgtLjkwNCAyLjQxNi0xLjU0NSA0LjY4NC0xLjkzMSA2Ljg1Ny42NjYtMi4wMzcgMi44MjEtMi45MTIgMi44MjEtMi45MTJzMS4wNTctMS4zMDQgMi4yOTItMy4xNjZjLS43NC4xNjktMS45NTUuNDU4LTIuMzYyLjYyOS0uNi4yNTEtLjc2Mi4zMzctLjc2Mi4zMzdzMS45NDUtMS4xODQgMy42MTMtMS43MkMyMS42OTUgNy45IDI0LjE5NSAyLjc2NyAyMS42NzguNTIxbS0xOC41NzMuNTQzQTEuODQyIDEuODQyIDAgMCAwIDEuMjcgMi45djE2LjYwOGExLjg0IDEuODQgMCAwIDAgMS44MzUgMS44MzRoOS40MThhMjIuOTUzIDIyLjk1MyAwIDAgMS0uMDUyLTIuNzA3Yy0uMDA2LS4wNjItLjAxMS0uMTQxLS4wMTYtLjJhMjcuMDEgMjcuMDEgMCAwIDAtLjQ3My0yLjM3OGMtLjEyMS0uNDctLjI3NS0uODk4LS4zNjktMS4wNTctLjExNi0uMTk3LS4wOTgtLjMxLS4wOTctLjQzMiAwLS4xMi4wMTUtLjI0NS4wMzctLjM4NmE5Ljk4IDkuOTggMCAwIDEgLjIzNC0xLjA0NWwuMjE3LS4wMjhjLS4wMTctLjAzNS0uMDE0LS4wNjUtLjAzMS0uMDk3bC0uMDQxLS4zODFhMzIuOCAzMi44IDAgMCAxIC4zODItMS4xOTRsLjItLjAxOWMtLjAwOC0uMDE2LS4wMS0uMDM4LS4wMTgtLjA1M2wtLjA0My0uMzE2Yy42My0zLjI4IDIuNTg3LTcuNDQzIDQuOC05Ljc5MS4wNjYtLjA2OS4xMzMtLjEyOC4xOTgtLjE5NFoiLz48L3N2Zz4=;" vertex="1" parent="1">
          <mxGeometry x="695.5" y="429.5" width="50" height="50" as="geometry" />
        </mxCell>
        <mxCell id="z9ePq5IkVnjo2RaBwPbp-22" style="shape=image;editableCssRules=.*;image=data:image/svg+xml,PHN2ZyB2aWV3Qm94PSIwIDAgMjQgMjQiIHhtbG5zPSJodHRwOi8vd3d3LnczLm9yZy8yMDAwL3N2ZyI+PHN0eWxlPip7ZmlsbDojNzc3QkI0fTwvc3R5bGU+PHBhdGggZD0iTTcuMDEgMTAuMjA3aC0uOTQ0bC0uNTE1IDIuNjQ4aC44MzhjLjU1NiAwIC45Ny0uMTA1IDEuMjQyLS4zMTQuMjcyLS4yMS40NTUtLjU1OS41NS0xLjA0OS4wOTItLjQ3LjA1LS44MDItLjEyNC0uOTk1LS4xNzUtLjE5My0uNTIzLS4yOS0xLjA0Ny0uMjl6TTEyIDUuNjg4QzUuMzczIDUuNjg4IDAgOC41MTQgMCAxMnM1LjM3MyA2LjMxMyAxMiA2LjMxM1MyNCAxNS40ODYgMjQgMTJjMC0zLjQ4Ni01LjM3My02LjMxMi0xMi02LjMxMnptLTMuMjYgNy40NTFjLS4yNjEuMjUtLjU3NS40MzgtLjkxNy41NTEtLjMzNi4xMDgtLjc2NS4xNjQtMS4yODUuMTY0SDUuMzU3bC0uMzI3IDEuNjgxSDMuNjUybDEuMjMtNi4zMjZoMi42NWMuNzk3IDAgMS4zNzguMjA5IDEuNzQ0LjYyOC4zNjYuNDE4LjQ3NiAxLjAwMi4zMyAxLjc1MmEyLjgzNiAyLjgzNiAwIDAgMS0uMzA1Ljg0N2MtLjE0My4yNTUtLjMzLjQ5LS41NjEuNzAzem00LjAyNC43MTVsLjU0My0yLjc5OWMuMDYzLS4zMTguMDM5LS41MzYtLjA2OC0uNjUxLS4xMDctLjExNi0uMzM2LS4xNzQtLjY4Ny0uMTc0SDExLjQ2bC0uNzA0IDMuNjI1SDkuMzg4bDEuMjMtNi4zMjdoMS4zNjdsLS4zMjcgMS42ODJoMS4yMThjLjc2NyAwIDEuMjk1LjEzNCAxLjU4Ni40MDFzLjM3OC43LjI2MyAxLjI5OWwtLjU3MiAyLjk0NGgtMS4zODl6bTcuNTk3LTIuMjY1YTIuNzgyIDIuNzgyIDAgMCAxLS4zMDUuODQ3Yy0uMTQzLjI1NS0uMzMuNDktLjU2MS43MDNhMi40NCAyLjQ0IDAgMCAxLS45MTcuNTUxYy0uMzM2LjEwOC0uNzY1LjE2NC0xLjI4Ni4xNjRoLTEuMThsLS4zMjcgMS42ODJoLTEuMzc4bDEuMjMtNi4zMjZoMi42NDljLjc5NyAwIDEuMzc4LjIwOSAxLjc0NC42MjguMzY2LjQxNy40NzcgMS4wMDEuMzMxIDEuNzUxek0xNy43NjYgMTAuMjA3aC0uOTQzbC0uNTE2IDIuNjQ4aC44MzhjLjU1NyAwIC45NzEtLjEwNSAxLjI0Mi0uMzE0LjI3Mi0uMjEuNDU1LS41NTkuNTUxLTEuMDQ5LjA5Mi0uNDcuMDQ5LS44MDItLjEyNS0uOTk1cy0uNTI0LS4yOS0xLjA0Ny0uMjl6Ii8+PC9zdmc+;" vertex="1" parent="1">
          <mxGeometry x="475.9" y="540" width="60" height="60" as="geometry" />
        </mxCell>
        <mxCell id="z9ePq5IkVnjo2RaBwPbp-23" style="shape=image;editableCssRules=.*;image=data:image/svg+xml,PHN2ZyB2aWV3Qm94PSIwIDAgMjQgMjQiIHhtbG5zPSJodHRwOi8vd3d3LnczLm9yZy8yMDAwL3N2ZyI+PHN0eWxlPip7ZmlsbDojQ0MzNDJEfTwvc3R5bGU+PHBhdGggZD0iTTIwLjE1Ni4wODNjMy4wMzMuNTI1IDMuODkzIDIuNTk4IDMuODI5IDQuNzdMMjQgNC44MjIgMjIuNjM1IDIyLjcxIDQuODkgMjMuOTI2aC4wMTZDMy40MzMgMjMuODY0LjE1IDIzLjcyOSAwIDE5LjEzOWwxLjY0NS0zIDIuODE5IDYuNTg2LjUwMyAxLjE3MiAyLjgwNS05LjE0NC0uMDMuMDA3LjAxNi0uMDMgOS4yNTUgMi45NTYtMS4zOTYtNS40MzEtLjk5LTMuOSA4LjgyLS41NjktLjYxNS0uNTFMMTYuNSAyLjExNCAyMC4xNTkuMDczbC0uMDAzLjAxek0wIDE5LjA4OXpNNS4xMyA1LjA3M2MzLjU2MS0zLjUzMyA4LjE1Ny01LjYyMSA5LjkyMi0zLjg0IDEuNzYyIDEuNzc3LS4xMDUgNi4xMDUtMy42NzMgOS42MzYtMy41NjMgMy41MzItOC4xMDMgNS43MzQtOS44NjQgMy45NTctMS43NjYtMS43NzcuMDQ1LTYuMjE3IDMuNjEyLTkuNzVsLjAwMy0uMDAzeiIvPjwvc3ZnPg==;" vertex="1" parent="1">
          <mxGeometry x="430.4" y="545" width="41" height="50" as="geometry" />
        </mxCell>
        <mxCell id="z9ePq5IkVnjo2RaBwPbp-24" style="shape=image;editableCssRules=.*;image=data:image/svg+xml,PHN2ZyB2aWV3Qm94PSIwIDAgMjQgMjQiIHhtbG5zPSJodHRwOi8vd3d3LnczLm9yZy8yMDAwL3N2ZyI+PHN0eWxlPip7ZmlsbDojRjdERjFFfTwvc3R5bGU+PHBhdGggZD0iTTAgMGgyNHYyNEgwVjB6bTIyLjAzNCAxOC4yNzZjLS4xNzUtMS4wOTUtLjg4OC0yLjAxNS0zLjAwMy0yLjg3My0uNzM2LS4zNDUtMS41NTQtLjU4NS0xLjc5Ny0xLjE0LS4wOTEtLjMzLS4xMDUtLjUxLS4wNDYtLjcwNS4xNS0uNjQ2LjkxNS0uODQgMS41MTUtLjY2LjM5LjEyLjc1LjQyLjk3Ni45IDEuMDM0LS42NzYgMS4wMzQtLjY3NiAxLjc1NS0xLjEyNS0uMjctLjQyLS40MDQtLjYwMS0uNTg2LS43OC0uNjMtLjcwNS0xLjQ2OS0xLjA2NS0yLjgzNC0xLjAzNGwtLjcwNS4wODljLS42NzYuMTY1LTEuMzIuNTI1LTEuNzEgMS4wMDUtMS4xNCAxLjI5MS0uODExIDMuNTQxLjU2OSA0LjQ3MSAxLjM2NSAxLjAyIDMuMzYxIDEuMjQ0IDMuNjE2IDIuMjA1LjI0IDEuMTctLjg3IDEuNTQ1LTEuOTY2IDEuNDEtLjgxMS0uMTgtMS4yNi0uNTg2LTEuNzU1LTEuMzM2bC0xLjgzIDEuMDUxYy4yMS40OC40NS42ODkuODEgMS4xMDkgMS43NCAxLjc1NiA2LjA5IDEuNjY2IDYuODcxLTEuMDA0LjAyOS0uMDkuMjQtLjcwNS4wNzQtMS42NWwuMDQ2LjA2N3ptLTguOTgzLTcuMjQ1aC0yLjI0OGMwIDEuOTM4LS4wMDkgMy44NjQtLjAwOSA1LjgwNSAwIDEuMjMyLjA2MyAyLjM2My0uMTM4IDIuNzExLS4zMy42ODktMS4xOC42MDEtMS41NjYuNDgtLjM5Ni0uMTk2LS41OTctLjQ2Ni0uODMtLjg1NS0uMDYzLS4xMDUtLjExLS4xOTYtLjEyNy0uMTk2bC0xLjgyNSAxLjEyNWMuMzA1LjYzLjc1IDEuMTcyIDEuMzI0IDEuNTE3Ljg1NS41MSAyLjAwNC42NzUgMy4yMDcuNDA1Ljc4My0uMjI2IDEuNDU4LS42OTEgMS44MTEtMS40MTEuNTEtLjkzLjQwMi0yLjA3LjM5Ny0zLjM0Ni4wMTItMi4wNTQgMC00LjEwOSAwLTYuMTc5bC4wMDQtLjA1NnoiLz48L3N2Zz4=;" vertex="1" parent="1">
          <mxGeometry x="240" y="440" width="50" height="50" as="geometry" />
        </mxCell>
        <mxCell id="z9ePq5IkVnjo2RaBwPbp-25" value="" style="shape=image;html=1;verticalAlign=top;verticalLabelPosition=bottom;labelBackgroundColor=#ffffff;imageAspect=0;aspect=fixed;image=https://cdn0.iconfinder.com/data/icons/long-shadow-web-icons/512/jquery-128.png" vertex="1" parent="1">
          <mxGeometry x="240" y="490" width="50" height="50" as="geometry" />
        </mxCell>
        <mxCell id="z9ePq5IkVnjo2RaBwPbp-26" value="" style="shape=image;html=1;verticalAlign=top;verticalLabelPosition=bottom;labelBackgroundColor=#ffffff;imageAspect=0;aspect=fixed;image=https://cdn0.iconfinder.com/data/icons/long-shadow-web-icons/512/angular-symbol-128.png" vertex="1" parent="1">
          <mxGeometry x="290" y="490" width="50" height="50" as="geometry" />
        </mxCell>
        <mxCell id="z9ePq5IkVnjo2RaBwPbp-27" style="shape=image;editableCssRules=.*;image=data:image/svg+xml,PHN2ZyB2aWV3Qm94PSIwIDAgMjQgMjQiIHhtbG5zPSJodHRwOi8vd3d3LnczLm9yZy8yMDAwL3N2ZyI+PHN0eWxlPip7ZmlsbDojNEZDMDhEfTwvc3R5bGU+PHBhdGggZD0iTTI0LDEuNjFIMTQuMDZMMTIsNS4xNiw5Ljk0LDEuNjFIMEwxMiwyMi4zOVpNMTIsMTQuMDgsNS4xNiwyLjIzSDkuNTlMMTIsNi40MWwyLjQxLTQuMThoNC40M1oiLz48L3N2Zz4=;" vertex="1" parent="1">
          <mxGeometry x="290" y="539" width="50" height="50" as="geometry" />
        </mxCell>
        <mxCell id="z9ePq5IkVnjo2RaBwPbp-28" style="shape=image;editableCssRules=.*;image=data:image/svg+xml,PHN2ZyB2aWV3Qm94PSIwIDAgMjQgMjQiIHhtbG5zPSJodHRwOi8vd3d3LnczLm9yZy8yMDAwL3N2ZyI+PHN0eWxlPip7ZmlsbDojNjFEQUZCfTwvc3R5bGU+PHBhdGggZD0iTTE0LjIzIDEyLjAwNGEyLjIzNiAyLjIzNiAwIDAgMS0yLjIzNSAyLjIzNiAyLjIzNiAyLjIzNiAwIDAgMS0yLjIzNi0yLjIzNiAyLjIzNiAyLjIzNiAwIDAgMSAyLjIzNS0yLjIzNiAyLjIzNiAyLjIzNiAwIDAgMSAyLjIzNiAyLjIzNnptMi42NDgtMTAuNjljLTEuMzQ2IDAtMy4xMDcuOTYtNC44ODggMi42MjItMS43OC0xLjY1My0zLjU0Mi0yLjYwMi00Ljg4Ny0yLjYwMi0uNDEgMC0uNzgzLjA5My0xLjEwNi4yNzgtMS4zNzUuNzkzLTEuNjgzIDMuMjY0LS45NzMgNi4zNjVDMS45OCA4LjkxNyAwIDEwLjQyIDAgMTIuMDA0YzAgMS41OSAxLjk5IDMuMDk3IDUuMDQzIDQuMDMtLjcwNCAzLjExMy0uMzkgNS41ODguOTg4IDYuMzguMzIuMTg3LjY5LjI3NSAxLjEwMi4yNzUgMS4zNDUgMCAzLjEwNy0uOTYgNC44ODgtMi42MjQgMS43OCAxLjY1NCAzLjU0MiAyLjYwMyA0Ljg4NyAyLjYwMy40MSAwIC43ODMtLjA5IDEuMTA2LS4yNzUgMS4zNzQtLjc5MiAxLjY4My0zLjI2My45NzMtNi4zNjVDMjIuMDIgMTUuMDk2IDI0IDEzLjU5IDI0IDEyLjAwNGMwLTEuNTktMS45OS0zLjA5Ny01LjA0My00LjAzMi43MDQtMy4xMS4zOS01LjU4Ny0uOTg4LTYuMzgtLjMxOC0uMTg0LS42ODgtLjI3Ny0xLjA5Mi0uMjc4em0tLjAwNSAxLjA5di4wMDZjLjIyNSAwIC40MDYuMDQ0LjU1OC4xMjcuNjY2LjM4Mi45NTUgMS44MzUuNzMgMy43MDQtLjA1NC40Ni0uMTQyLjk0NS0uMjUgMS40NC0uOTYtLjIzNi0yLjAwNi0uNDE3LTMuMTA3LS41MzQtLjY2LS45MDUtMS4zNDUtMS43MjctMi4wMzUtMi40NDcgMS41OTItMS40OCAzLjA4Ny0yLjI5MiA0LjEwNS0yLjI5NXptLTkuNzcuMDJjMS4wMTIgMCAyLjUxNC44MDggNC4xMSAyLjI4LS42ODYuNzItMS4zNyAxLjUzNy0yLjAyIDIuNDQyLTEuMTA3LjExNy0yLjE1NC4yOTgtMy4xMTMuNTM4LS4xMTItLjQ5LS4xOTUtLjk2NC0uMjU0LTEuNDItLjIzLTEuODY4LjA1NC0zLjMyLjcxNC0zLjcwNy4xOS0uMDkuNC0uMTI3LjU2My0uMTMyem00Ljg4MiAzLjA1Yy40NTUuNDY4LjkxLjk5MiAxLjM2IDEuNTY0LS40NC0uMDItLjg5LS4wMzQtMS4zNDUtLjAzNC0uNDYgMC0uOTE1LjAxLTEuMzYuMDM0LjQ0LS41NzIuODk1LTEuMDk2IDEuMzQ1LTEuNTY1ek0xMiA4LjFjLjc0IDAgMS40NzcuMDM0IDIuMjAyLjA5My40MDYuNTgyLjgwMiAxLjIwMyAxLjE4MyAxLjg2LjM3Mi42NC43MSAxLjI5IDEuMDE4IDEuOTQ2LS4zMDguNjU1LS42NDYgMS4zMS0xLjAxMyAxLjk1LS4zOC42Ni0uNzczIDEuMjg4LTEuMTggMS44Ny0uNzI4LjA2My0xLjQ2Ni4wOTgtMi4yMS4wOTgtLjc0IDAtMS40NzctLjAzNS0yLjIwMi0uMDkzLS40MDYtLjU4Mi0uODAyLTEuMjA0LTEuMTgzLTEuODYtLjM3Mi0uNjQtLjcxLTEuMjktMS4wMTgtMS45NDYuMzAzLS42NTcuNjQ2LTEuMzEzIDEuMDEzLTEuOTU0LjM4LS42Ni43NzMtMS4yODYgMS4xOC0xLjg2OC43MjgtLjA2NCAxLjQ2Ni0uMDk4IDIuMjEtLjA5OHptLTMuNjM1LjI1NGMtLjI0LjM3Ny0uNDguNzYzLS43MDQgMS4xNi0uMjI1LjM5LS40MzUuNzgyLS42MzUgMS4xNzQtLjI2NS0uNjU2LS40OS0xLjMxLS42NzYtMS45NDcuNjQtLjE1IDEuMzE1LS4yODMgMi4wMTUtLjM4NnptNy4yNiAwYy42OTUuMTAzIDEuMzY1LjIzIDIuMDA2LjM4Ny0uMTguNjMyLS40MDUgMS4yODItLjY2IDEuOTMzLS4yLS4zOS0uNDEtLjc4My0uNjQtMS4xNzQtLjIyNS0uMzkyLS40NjUtLjc3NC0uNzA1LTEuMTQ2em0zLjA2My42NzVjLjQ4NC4xNS45NDQuMzE3IDEuMzc1LjQ5OCAxLjczMi43NCAyLjg1MiAxLjcwOCAyLjg1MiAyLjQ3Ni0uMDA1Ljc2OC0xLjEyNSAxLjc0LTIuODU3IDIuNDc1LS40Mi4xOC0uODguMzQyLTEuMzU1LjQ5My0uMjgtLjk1OC0uNjQ2LTEuOTU2LTEuMS0yLjk4LjQ1LTEuMDE3LjgxLTIuMDEgMS4wODUtMi45NjR6bS0xMy4zOTUuMDA0Yy4yNzguOTYuNjQ1IDEuOTU3IDEuMSAyLjk4LS40NSAxLjAxNy0uODEyIDIuMDEtMS4wODYgMi45NjQtLjQ4NC0uMTUtLjk0NC0uMzE4LTEuMzctLjUtMS43MzItLjczNy0yLjg1Mi0xLjcwNi0yLjg1Mi0yLjQ3NCAwLS43NjggMS4xMi0xLjc0MiAyLjg1Mi0yLjQ3Ni40Mi0uMTguODgtLjM0MiAxLjM1Ni0uNDk0em0xMS42NzggNC4yOGMuMjY1LjY1Ny40OSAxLjMxMi42NzYgMS45NDgtLjY0LjE1Ny0xLjMxNi4yOS0yLjAxNi4zOS4yNC0uMzc1LjQ4LS43NjIuNzA1LTEuMTU4LjIyNS0uMzkuNDM1LS43ODguNjM2LTEuMTh6bS05Ljk0NS4wMmMuMi4zOTIuNDEuNzgzLjY0IDEuMTc1LjIzLjM5LjQ2NS43NzIuNzA1IDEuMTQzLS42OTUtLjEwMi0xLjM2NS0uMjMtMi4wMDYtLjM4Ni4xOC0uNjMuNDA2LTEuMjgyLjY2LTEuOTMzek0xNy45MiAxNi4zMmMuMTEyLjQ5My4yLjk2OC4yNTQgMS40MjMuMjMgMS44NjgtLjA1NCAzLjMyLS43MTQgMy43MDgtLjE0Ny4wOS0uMzM4LjEyOC0uNTYzLjEyOC0xLjAxMiAwLTIuNTE0LS44MDctNC4xMS0yLjI4LjY4Ni0uNzIgMS4zNy0xLjUzNiAyLjAyLTIuNDQgMS4xMDctLjExOCAyLjE1NC0uMyAzLjExMy0uNTR6bS0xMS44My4wMWMuOTYuMjM0IDIuMDA2LjQxNSAzLjEwNy41MzIuNjYuOTA1IDEuMzQ1IDEuNzI3IDIuMDM1IDIuNDQ2LTEuNTk1IDEuNDgzLTMuMDkyIDIuMjk1LTQuMTEgMi4yOTUtLjIyLS4wMDUtLjQwNi0uMDUtLjU1My0uMTMyLS42NjYtLjM4LS45NTUtMS44MzQtLjczLTMuNzAzLjA1NC0uNDYuMTQyLS45NDQuMjUtMS40Mzh6bTQuNTYuNjRjLjQ0LjAyLjg5LjAzNCAxLjM0NS4wMzQuNDYgMCAuOTE1LS4wMSAxLjM2LS4wMzQtLjQ0LjU3Mi0uODk1IDEuMDk1LTEuMzQ1IDEuNTY1LS40NTUtLjQ3LS45MS0uOTkzLTEuMzYtMS41NjV6Ii8+PC9zdmc+;" vertex="1" parent="1">
          <mxGeometry x="240" y="539" width="50" height="50" as="geometry" />
        </mxCell>
        <mxCell id="z9ePq5IkVnjo2RaBwPbp-30" value="端末" style="text;html=1;align=center;verticalAlign=middle;whiteSpace=wrap;rounded=0;" vertex="1" parent="1">
          <mxGeometry x="60" y="320" width="60" height="30" as="geometry" />
        </mxCell>
        <mxCell id="z9ePq5IkVnjo2RaBwPbp-31" value="Linux" style="text;html=1;align=center;verticalAlign=middle;whiteSpace=wrap;rounded=0;" vertex="1" parent="1">
          <mxGeometry x="206" y="90" width="60" height="30" as="geometry" />
        </mxCell>
        <mxCell id="z9ePq5IkVnjo2RaBwPbp-32" value="CentOS" style="text;html=1;align=center;verticalAlign=middle;whiteSpace=wrap;rounded=0;" vertex="1" parent="1">
          <mxGeometry x="281" y="90" width="60" height="30" as="geometry" />
        </mxCell>
        <mxCell id="z9ePq5IkVnjo2RaBwPbp-34" value="Webサーバ" style="text;html=1;align=center;verticalAlign=middle;whiteSpace=wrap;rounded=0;" vertex="1" parent="1">
          <mxGeometry x="240" y="185" width="81" height="30" as="geometry" />
        </mxCell>
        <mxCell id="z9ePq5IkVnjo2RaBwPbp-35" value="APサーバ" style="text;html=1;align=center;verticalAlign=middle;whiteSpace=wrap;rounded=0;" vertex="1" parent="1">
          <mxGeometry x="441.1" y="97" width="81" height="30" as="geometry" />
        </mxCell>
        <mxCell id="z9ePq5IkVnjo2RaBwPbp-36" value="APサーバ" style="text;html=1;align=center;verticalAlign=middle;whiteSpace=wrap;rounded=0;" vertex="1" parent="1">
          <mxGeometry x="441.1" y="300" width="81" height="30" as="geometry" />
        </mxCell>
        <mxCell id="z9ePq5IkVnjo2RaBwPbp-37" value="Kubernetes" style="text;html=1;align=center;verticalAlign=middle;whiteSpace=wrap;rounded=0;" vertex="1" parent="1">
          <mxGeometry x="417.6" y="215" width="81" height="30" as="geometry" />
        </mxCell>
        <mxCell id="z9ePq5IkVnjo2RaBwPbp-38" value="Docker" style="text;html=1;align=center;verticalAlign=middle;whiteSpace=wrap;rounded=0;" vertex="1" parent="1">
          <mxGeometry x="484.4" y="220" width="65.6" height="30" as="geometry" />
        </mxCell>
        <mxCell id="z9ePq5IkVnjo2RaBwPbp-39" value="DBサーバ" style="text;html=1;align=center;verticalAlign=middle;whiteSpace=wrap;rounded=0;" vertex="1" parent="1">
          <mxGeometry x="632.3" y="185" width="81" height="30" as="geometry" />
        </mxCell>
        <mxCell id="z9ePq5IkVnjo2RaBwPbp-40" value="Apache" style="text;html=1;align=center;verticalAlign=middle;whiteSpace=wrap;rounded=0;" vertex="1" parent="1">
          <mxGeometry x="224.5" y="345" width="81" height="30" as="geometry" />
        </mxCell>
        <mxCell id="z9ePq5IkVnjo2RaBwPbp-41" value="Nginx" style="text;html=1;align=center;verticalAlign=middle;whiteSpace=wrap;rounded=0;" vertex="1" parent="1">
          <mxGeometry x="275" y="340" width="81" height="30" as="geometry" />
        </mxCell>
        <mxCell id="z9ePq5IkVnjo2RaBwPbp-42" value="React" style="text;html=1;align=center;verticalAlign=middle;whiteSpace=wrap;rounded=0;" vertex="1" parent="1">
          <mxGeometry x="224.5" y="580" width="81" height="30" as="geometry" />
        </mxCell>
        <mxCell id="z9ePq5IkVnjo2RaBwPbp-43" value="Vue.js" style="text;html=1;align=center;verticalAlign=middle;whiteSpace=wrap;rounded=0;" vertex="1" parent="1">
          <mxGeometry x="274.5" y="580" width="81" height="30" as="geometry" />
        </mxCell>
        <mxCell id="z9ePq5IkVnjo2RaBwPbp-44" value="Angular" style="text;html=1;align=center;verticalAlign=middle;whiteSpace=wrap;rounded=0;" vertex="1" parent="1">
          <mxGeometry x="275" y="467" width="81" height="30" as="geometry" />
        </mxCell>
        <mxCell id="z9ePq5IkVnjo2RaBwPbp-46" value="Ruby" style="text;html=1;align=center;verticalAlign=middle;whiteSpace=wrap;rounded=0;" vertex="1" parent="1">
          <mxGeometry x="410.4" y="583" width="81" height="30" as="geometry" />
        </mxCell>
        <mxCell id="z9ePq5IkVnjo2RaBwPbp-47" value="Spring Boot" style="text;html=1;align=center;verticalAlign=middle;whiteSpace=wrap;rounded=0;" vertex="1" parent="1">
          <mxGeometry x="469" y="470" width="81" height="30" as="geometry" />
        </mxCell>
        <mxCell id="z9ePq5IkVnjo2RaBwPbp-48" value="Spring Bootの&lt;div&gt;内臓Tomcat&lt;/div&gt;" style="text;html=1;align=center;verticalAlign=middle;whiteSpace=wrap;rounded=0;" vertex="1" parent="1">
          <mxGeometry x="463.4" y="413" width="81" height="30" as="geometry" />
        </mxCell>
        <mxCell id="z9ePq5IkVnjo2RaBwPbp-49" value="Spring" style="text;html=1;align=center;verticalAlign=middle;whiteSpace=wrap;rounded=0;" vertex="1" parent="1">
          <mxGeometry x="410.4" y="525" width="81" height="30" as="geometry" />
        </mxCell>
        <mxCell id="z9ePq5IkVnjo2RaBwPbp-50" value="PostgreSQL" style="text;html=1;align=center;verticalAlign=middle;whiteSpace=wrap;rounded=0;" vertex="1" parent="1">
          <mxGeometry x="620" y="449.5" width="81" height="30" as="geometry" />
        </mxCell>
        <mxCell id="z9ePq5IkVnjo2RaBwPbp-51" value="SQLite3" style="text;html=1;align=center;verticalAlign=middle;whiteSpace=wrap;rounded=0;" vertex="1" parent="1">
          <mxGeometry x="680" y="469.5" width="81" height="30" as="geometry" />
        </mxCell>
        <mxCell id="z9ePq5IkVnjo2RaBwPbp-52" value="MariaDB" style="text;html=1;align=center;verticalAlign=middle;whiteSpace=wrap;rounded=0;" vertex="1" parent="1">
          <mxGeometry x="695.5" y="320" width="81" height="30" as="geometry" />
        </mxCell>
        <mxCell id="z9ePq5IkVnjo2RaBwPbp-61" style="edgeStyle=orthogonalEdgeStyle;rounded=0;orthogonalLoop=1;jettySize=auto;html=1;exitX=1;exitY=0.5;exitDx=0;exitDy=0;entryX=0;entryY=0.5;entryDx=0;entryDy=0;" edge="1" parent="1" source="z9ePq5IkVnjo2RaBwPbp-53" target="z9ePq5IkVnjo2RaBwPbp-2">
          <mxGeometry relative="1" as="geometry" />
        </mxCell>
        <mxCell id="z9ePq5IkVnjo2RaBwPbp-53" value="" style="rounded=1;whiteSpace=wrap;html=1;fillColor=none;" vertex="1" parent="1">
          <mxGeometry x="211" y="172" width="149" height="458" as="geometry" />
        </mxCell>
        <mxCell id="z9ePq5IkVnjo2RaBwPbp-59" style="edgeStyle=orthogonalEdgeStyle;rounded=0;orthogonalLoop=1;jettySize=auto;html=1;exitX=1;exitY=0.5;exitDx=0;exitDy=0;entryX=0;entryY=0.5;entryDx=0;entryDy=0;" edge="1" parent="1" source="z9ePq5IkVnjo2RaBwPbp-54" target="z9ePq5IkVnjo2RaBwPbp-55">
          <mxGeometry relative="1" as="geometry" />
        </mxCell>
        <mxCell id="z9ePq5IkVnjo2RaBwPbp-55" value="" style="rounded=1;whiteSpace=wrap;html=1;fillColor=none;" vertex="1" parent="1">
          <mxGeometry x="610" y="145" width="172.1" height="420" as="geometry" />
        </mxCell>
        <mxCell id="z9ePq5IkVnjo2RaBwPbp-62" style="edgeStyle=orthogonalEdgeStyle;rounded=0;orthogonalLoop=1;jettySize=auto;html=1;exitX=1;exitY=0.5;exitDx=0;exitDy=0;entryX=0;entryY=0.5;entryDx=0;entryDy=0;" edge="1" parent="1" source="z9ePq5IkVnjo2RaBwPbp-53" target="z9ePq5IkVnjo2RaBwPbp-16">
          <mxGeometry relative="1" as="geometry">
            <mxPoint x="370" y="411" as="sourcePoint" />
            <mxPoint x="464" y="177" as="targetPoint" />
            <Array as="points">
              <mxPoint x="440" y="401" />
              <mxPoint x="440" y="360" />
            </Array>
          </mxGeometry>
        </mxCell>
      </root>
    </mxGraphModel>
  </diagram>
</mxfile>
